<svg xmlns="http://www.w3.org/2000/svg" viewBox="0 0 400 400">
  <path fill="#E535AB" d="M57.5 302.7L43 294.4 203.2 17l14.4 8.3z"/>
  <path fill="#E535AB" d="M39.8 272.2h320.3v16.6H39.8z"/>
  <path fill="#E535AB" d="M206.3 374L46.1 281.5l8.3-14.3 160.2 92.5zM345.5 133L185.3 40.3l8.3-14.3 160.2 92.5z"/>
  <path fill="#E535AB" d="M54.5 132.9l-8.3-14.4L206.4 26l8.3 14.4z"/>
  <path fill="#E535AB" d="M342.6 302.7L182.4 25.3l14.4-8.3 160.1 277.4zM52.5 107.5h16.6v185H52.5z"/>
  <path fill="#E535AB" d="M330.9 107.5h16.6v185h-16.6z"/>
  <path fill="#E535AB" d="M203.5 367l-7.2-12.6L335.6 274l7.3 12.5z"/>
  <path fill="#E535AB" d="M369.5 297.9a35 35 0 11-60.5-35 35 35 0 0160.5 35M90.9 137a35 35 0 11-60.5-35 35 35 0 0160.5 35M30.5 297.9A35 35 0 1191.1 263 35 35 0 0130.5 298M309.1 137a35 35 0 1160.6-34.9 35 35 0 01-60.6 34.9M200 395.8a34.9 34.9 0 110-69.7 34.9 34.9 0 010 69.7M200 74a34.9 34.9 0 110-69.7 34.9 34.9 0 010 69.7"/>
</svg>