<svg width="256" height="230" xmlns="http://www.w3.org/2000/svg" preserveAspectRatio="xMidYMid">
  <path d="M.8 114.8C.8 134 19.5 151.9 49 162c-6 29.8-1 53.7 15.1 63 16.7 9.7 41.5 3 65-17.6 23 19.8 46.1 27.6 62.3 18.2 16.7-9.6 21.7-35.2 15.6-65.9 30.8-10.2 48-25.5 48-45 0-18.7-18.7-35-47.9-45 6.5-32 1-55.3-15.9-65-16.2-9.4-39.7-1.3-63 19C104.1 2.2 81-4.3 64 5.4c-16.2 9.4-20.8 33.8-14.9 64C20.5 79.5.8 96.2.8 114.9z" fill="#FFF"/>
  <path d="M201 79.7l-7.2-2.3 1-5c5.6-26.7 2-48.2-10.3-55.3-11.8-6.8-31 .3-50.5 17.2-2 1.6-3.8 3.4-5.7 5.2l-3.7-3.5C104.2 18 83.7 10.3 71.4 17.4c-11.7 6.8-15.2 27-10.3 52.4.5 2.4 1 4.9 1.7 7.4-2.9.9-5.7 1.7-8.4 2.7-23.9 8.3-39.2 21.4-39.2 35 0 14 16.4 28 41.4 36.5l6 2-1.7 8c-4.7 24.9-1 44.6 10.7 51.4 12.1 7 32.5-.2 52.3-17.5 1.6-1.4 3.2-2.8 4.7-4.4 2 2 4.1 3.9 6.1 5.6 19.2 16.5 38.2 23.2 50 16.4 12-7 16-28.2 10.9-54-.4-2-.8-4-1.4-6.1l4.2-1.3c26-8.6 42.8-22.5 42.8-36.7 0-13.6-15.8-26.7-40.2-35.1z" fill="#53C1DE"/>
  <path d="M195.4 142.3l-3.8 1.2c-2.8-9-6.7-18.7-11.4-28.6 4.5-9.7 8.2-19.2 11-28.2l6.7 2.1c20.9 7.2 33.6 17.8 33.6 26 0 8.8-13.7 20.1-36 27.5zm-9.3 18.4a81.7 81.7 0 011.1 29.8c-1.3 7.3-4 12.1-7.4 14-7.1 4.2-22.3-1.2-38.8-15.3l-5.6-5.2c6.3-7 12.7-15 18.9-24 11-1 21.2-2.6 30.6-4.7l1.2 5.4zM92.3 204c-7 2.4-12.5 2.5-15.9.6-7.1-4.2-10-20-6-41.3.4-2.5 1-5 1.6-7.5a227 227 0 0030.5 4.4 235 235 0 0019.4 24l-4.3 4a81.8 81.8 0 01-25.3 15.8zm-32.6-61.6a81.8 81.8 0 01-26.4-14c-5.6-4.8-8.4-9.6-8.4-13.5 0-8.2 12.3-18.7 32.7-25.8l7.8-2.5c2.8 9.2 6.5 18.9 11 28.6-4.5 9.8-8.3 19.6-11.1 29l-5.6-1.8zm11-74.4c-4.3-21.7-1.5-38 5.6-42.2 7.5-4.4 24.3 1.9 41.9 17.5l3.4 3.2c-6.6 7-13 15-19.3 23.8a236 236 0 00-30.1 4.7l-1.6-7zm97.4 24a307 307 0 00-6.9-11.2c7.2.9 14.1 2 20.6 3.6-2 6.2-4.4 12.7-7.2 19.4-2-3.9-4.2-7.8-6.5-11.7zm-39.8-38.6c4.5 4.8 9 10.2 13.3 16a284.2 284.2 0 00-26.7 0 213 213 0 0113.4-16zM88.3 92L82 103.7c-2.8-6.6-5.2-13.2-7.1-19.5 6.4-1.5 13.3-2.7 20.5-3.5l-7 11.3zm7.2 57.7c-7.4-.8-14.4-2-20.9-3.3 2-6.5 4.5-13.2 7.4-20a285.3 285.3 0 0013.5 23.3zm33.1 27.4c-4.6-5-9.1-10.4-13.6-16.3a337.4 337.4 0 0026.9 0c-4.4 6-8.9 11.4-13.3 16.3zm46-51c3 6.9 5.6 13.5 7.7 19.9a205 205 0 01-21.1 3.5 337.5 337.5 0 0013.5-23.4zm-14.8 7.1c-3.6 6.2-7.2 12-10.9 17.5a290.7 290.7 0 01-41.1.1A271.3 271.3 0 0187 115.1a271.3 271.3 0 0120.6-35.7 271.5 271.5 0 0141.2 0 290.7 290.7 0 0120.6 35.5c-3 6-6.2 12.2-9.7 18.3zm19.9-107.8c7.5 4.4 10.5 22 5.7 45l-1 4.6c-9.4-2.2-19.5-3.8-30.2-4.8A226.8 226.8 0 00135 46.4a142 142 0 015.2-4.8C157 27 172.6 21.3 179.7 25.4z" fill="#FFF"/>
  <path d="M128.2 94.7a20.2 20.2 0 110 40.3 20.2 20.2 0 010-40.3" fill="#53C1DE"/>
</svg>