<?xml version="1.0" encoding="utf-8"?>
<svg viewBox="0 0 1080 1080" xmlns="http://www.w3.org/2000/svg">
  <defs>
    <style>.cls-1{fill:#3544b1;}</style>
  </defs>
  <path class="cls-1" d="M 140.219 422.049 C 140.451 198.365 322.073 17.275 545.789 17.557 C 769.507 17.84 950.531 199.411 950.231 423.095 C 949.932 646.779 768.71 827.57 545.224 827.57 C 321.425 827.454 140.103 645.915 140.219 422.115 Z M 537.019 560.728 C 505.598 561.646 474.181 558.83 443.425 552.338 C 420.733 547.714 401.68 532.394 392.292 511.223 C 383.134 490.103 378.704 457.533 379.003 413.509 C 379.171 390.506 380.613 367.53 383.322 344.686 C 385.957 322.436 388.594 304.102 391.23 289.682 L 394.004 275.346 C 394.037 274.925 394.037 274.504 394.004 274.084 C 393.991 270.089 391.136 266.67 387.209 265.943 L 334.963 257.804 L 333.835 257.804 C 330.033 257.84 326.741 260.455 325.844 264.15 C 324.947 267.472 324.432 269.98 322.87 277.954 C 319.88 293.337 317.122 308.338 314.05 330.216 C 310.827 353.978 308.865 377.895 308.169 401.865 C 307.022 418.562 307.022 435.32 308.169 452.017 C 309.397 496.316 317.006 531.722 330.994 558.236 C 344.981 584.749 368.67 603.808 402.061 615.415 C 435.451 627.055 481.966 632.753 541.603 632.51 L 549.113 632.51 C 608.817 632.753 655.331 627.055 688.656 615.415 C 721.98 603.776 745.668 584.715 759.723 558.236 C 773.709 531.722 781.324 496.316 782.564 452.017 C 783.694 435.318 783.694 418.564 782.564 401.865 C 781.862 377.895 779.895 353.978 776.667 330.216 C 773.61 308.621 770.836 293.669 767.862 277.954 C 766.201 269.98 765.77 267.506 764.872 264.15 C 764.008 260.434 760.697 257.805 756.882 257.804 L 755.535 257.804 L 703.291 265.943 C 699.315 266.604 696.408 270.053 696.43 274.084 C 696.396 274.504 696.396 274.925 696.43 275.346 L 699.187 289.682 C 701.823 304.146 704.487 322.48 707.178 344.686 C 709.849 367.532 711.269 390.508 711.431 413.509 C 711.874 457.455 707.443 489.999 698.14 511.14 C 688.829 532.278 669.886 547.622 647.274 552.338 C 616.542 558.846 585.148 561.679 553.747 560.778 Z" style=""/>
  <path class="cls-1" d="M 879.995 1000.72 C 879.995 965.701 889.962 941.131 930.512 941.131 C 971.063 941.131 981.03 965.701 981.03 1000.72 C 981.03 1035.738 971.063 1060.291 930.562 1060.291 C 890.062 1060.291 879.995 1035.754 879.995 1000.72 Z M 955.265 1000.72 C 955.265 976.365 952.108 962.511 930.512 962.511 C 908.917 962.511 905.694 976.399 905.694 1000.72 C 905.694 1025.04 908.9 1038.928 930.512 1038.928 C 952.126 1038.928 955.265 1024.99 955.265 1000.72 Z" style=""/>
  <path class="cls-1" d="M 180.32 1055.823 C 180.923 1056.865 182.041 1057.5 183.244 1057.484 L 192.697 1057.484 C 194.531 1057.484 196.019 1055.996 196.019 1054.161 L 196.019 947.228 C 196.019 945.393 194.531 943.906 192.697 943.906 L 173.874 943.906 C 172.04 943.906 170.552 945.393 170.552 947.228 L 170.552 1032.099 C 162.523 1036.634 153.425 1038.928 144.206 1038.745 C 132.162 1038.745 126.265 1033.512 126.265 1021.916 L 126.265 947.228 C 126.265 945.393 124.777 943.906 122.941 943.906 L 103.987 943.906 C 102.153 943.906 100.665 945.393 100.665 947.228 L 100.665 1024.126 C 100.665 1045.955 110.898 1060.258 139.77 1060.258 C 152.962 1060.125 165.805 1056.008 176.617 1048.446 L 179.939 1055.972 Z" style=""/>
  <path class="cls-1" d="M 392.525 977.263 C 392.525 955.668 381.843 941.099 354.882 941.099 C 341.894 941.135 329.217 945.064 318.484 952.378 C 313.717 945.351 304.596 941.099 289.364 941.099 C 276.979 941.342 264.984 945.473 255.076 952.909 L 251.753 945.385 L 251.753 945.385 C 251.148 944.336 250.022 943.7 248.812 943.722 L 239.294 943.722 C 237.46 943.722 235.972 945.21 235.972 947.046 L 235.972 1054.028 C 235.972 1055.864 237.46 1057.35 239.294 1057.35 L 258.116 1057.35 C 259.951 1057.35 261.438 1055.864 261.438 1054.028 L 261.438 969.306 C 268.631 964.947 276.883 962.647 285.294 962.661 C 295.543 962.661 301.44 966.432 301.44 977.23 L 301.44 1054.194 C 301.44 1056.03 302.928 1057.517 304.763 1057.517 L 323.584 1057.517 C 325.42 1057.517 326.906 1056.03 326.906 1054.194 L 326.906 969.306 C 334.08 964.861 342.373 962.556 350.812 962.661 C 360.779 962.661 366.959 966.432 366.959 977.23 L 366.959 1054.128 C 366.959 1055.962 368.447 1057.45 370.281 1057.45 L 389.104 1057.45 C 390.938 1057.45 392.426 1055.962 392.426 1054.128 Z" style=""/>
  <path class="cls-1" d="M 450.718 1048.48 C 461.385 1056.387 474.37 1060.54 487.647 1060.291 C 520.872 1060.291 533.115 1038.014 533.115 1000.72 C 533.115 963.425 520.756 941.065 487.647 941.065 C 476.853 941.112 466.291 944.193 457.163 949.952 L 457.163 915.615 C 457.22 913.742 455.715 912.192 453.841 912.193 L 434.87 912.193 C 433.035 912.193 431.547 913.681 431.547 915.515 L 431.547 1054.194 C 431.547 1056.03 433.035 1057.517 434.87 1057.517 L 444.323 1057.517 C 445.526 1057.533 446.644 1056.897 447.246 1055.855 L 447.246 1055.855 Z M 481.617 1038.695 C 472.993 1038.699 464.524 1036.404 457.081 1032.051 L 457.081 969.306 C 464.524 964.952 472.993 962.658 481.617 962.661 C 503.893 962.661 507.333 979.721 507.333 1000.653 C 507.333 1021.585 504.009 1038.629 481.651 1038.629 Z" style=""/>
  <path class="cls-1" d="M 627.189 963.491 C 624.261 963.096 621.307 962.906 618.352 962.926 C 608.2 962.496 598.124 964.852 589.214 969.738 L 589.214 1054.161 C 589.214 1055.996 587.726 1057.484 585.892 1057.484 L 567.053 1057.484 C 565.219 1057.484 563.731 1055.996 563.731 1054.161 L 563.731 947.228 C 563.731 945.393 565.219 943.906 567.053 943.906 L 576.506 943.906 C 577.715 943.883 578.841 944.519 579.446 945.567 L 579.446 945.567 L 582.768 953.092 C 593.085 945.229 605.748 941.069 618.717 941.281 C 621.707 941.28 624.691 941.53 627.638 942.029 L 627.638 942.029 C 629.299 942.029 630.728 944.852 630.728 946.663 L 630.728 960.285 C 630.728 962.12 629.241 963.607 627.406 963.607 L 627.141 963.607" style=""/>
  <path class="cls-1" d="M 692.443 1005.039 C 681.146 1006.401 674.452 1010.687 674.452 1022.549 C 674.452 1031.203 678.206 1039.376 691.944 1039.376 C 700.649 1039.455 709.162 1036.819 716.298 1031.834 L 716.298 1002.414 Z M 722.544 1048.48 C 712.763 1056.174 700.668 1060.337 688.223 1060.291 C 658.87 1060.291 649.118 1042.117 649.118 1023.894 C 649.118 999.324 665.032 988.858 690.748 986.832 L 716.231 984.788 L 716.231 979.106 C 716.231 967.478 710.766 962.96 693.938 962.96 C 683.372 962.961 672.88 964.718 662.89 968.159 C 662.542 968.209 662.19 968.209 661.842 968.159 C 660.008 968.159 658.52 966.672 658.52 964.837 L 658.52 949.787 C 658.483 948.361 659.358 947.072 660.696 946.581 L 660.696 946.581 C 672.012 942.771 683.876 940.852 695.815 940.899 C 733.109 940.899 741.731 957.261 741.731 981.4 L 741.731 1053.962 C 741.731 1055.796 740.243 1057.284 738.409 1057.284 L 728.973 1057.284 C 727.763 1057.306 726.637 1056.67 726.032 1055.623 L 726.032 1055.623 Z" style=""/>
  <path class="cls-1" d="M 852.136 1034.093 C 852.472 1034.043 852.814 1034.043 853.149 1034.093 C 854.985 1034.093 856.472 1035.581 856.472 1037.415 L 856.472 1052.499 C 856.492 1053.865 855.675 1055.104 854.412 1055.623 L 854.412 1055.623 C 845.023 1058.99 835.097 1060.611 825.125 1060.408 C 784.856 1060.408 772.431 1036.287 772.431 1000.819 C 772.431 965.352 784.74 941.247 825.125 941.247 C 835.02 940.985 844.879 942.539 854.213 945.832 L 854.213 945.832 C 855.507 946.34 856.349 947.599 856.323 948.989 L 856.323 964.056 C 856.323 965.892 854.835 967.378 853.001 967.378 C 852.641 967.412 852.28 967.412 851.921 967.378 L 851.921 967.378 C 843.714 964.792 835.138 963.58 826.537 963.791 C 804.476 963.791 798.08 978.841 798.08 1000.869 C 798.08 1022.896 804.476 1037.93 826.537 1037.93 C 835.142 1038.091 843.714 1036.823 851.903 1034.177" style=""/>
</svg>