<svg xmlns="http://www.w3.org/2000/svg" height="486.67" width="433.01">
  <path d="M432.99 143.08c0-8.18-1.76-15.41-5.3-21.62-3.47-6.1-8.68-11.22-15.66-15.26-57.65-33.24-115.35-66.38-172.98-99.65-15.53-8.97-30.6-8.64-46.02.46C170.1 20.54 55.21 86.35 20.98 106.18 6.88 114.34.03 126.83.02 143.07 0 209.9.02 276.75 0 343.6c0 8 1.68 15.1 5.06 21.2 3.48 6.3 8.76 11.55 15.9 15.69 34.24 19.82 149.13 85.63 172.07 99.17 15.43 9.1 30.49 9.43 46.03.45 57.63-33.27 115.33-66.4 172.99-99.64 7.14-4.14 12.42-9.4 15.9-15.68 3.38-6.11 5.06-13.2 5.06-21.2 0 0 0-133.66-.02-200.51" fill="#973497"/>
  <path d="M217.17 242.68L5.07 364.81c3.47 6.28 8.75 11.54 15.9 15.68 34.23 19.82 149.12 85.63 172.06 99.17 15.43 9.1 30.49 9.43 46.03.45 57.63-33.27 115.33-66.4 172.99-99.64 7.14-4.14 12.42-9.4 15.9-15.68l-210.78-122.1" fill="#602276"/>
  <path d="M154.34 278.86a71.56 71.56 0 0 0 124.56-.42l-61.73-35.76-62.83 36.18" fill="#602276"/>
  <path d="M432.99 143.08c0-8.18-1.76-15.41-5.3-21.62L217.17 242.68 427.95 364.8c3.38-6.11 5.06-13.2 5.06-21.2 0 0 0-133.66-.02-200.51" fill="#7b2487"/>
  <path d="M278.9 278.44a71.56 71.56 0 0 1-124.56.42 71.6 71.6 0 0 1 124.09-71.45l62.59-36.04c-24.88-42.94-71.32-71.83-124.51-71.83-79.42 0-143.8 64.38-143.8 143.8 0 26.05 6.93 50.48 19.04 71.55 24.82 43.17 71.4 72.24 124.76 72.24 53.46 0 100.1-29.19 124.88-72.48l-62.5-36.2M357.98 278.22h-14.22v-68.89h14.22v68.9M389.54 278.22h-14.22v-68.89h14.22v68.9" fill="#fff"/>
  <path d="M332.2 235.11V220.9h68.9v14.22h-68.9M332.2 266.67v-14.23h68.9v14.23h-68.9" fill="#fff"/>
</svg>
