<svg xmlns="http://www.w3.org/2000/svg" xmlns:xlink="http://www.w3.org/1999/xlink" width="315" height="300">
  <defs>
    <linearGradient id="q">
      <stop offset="0" stop-color="#33bdf2" stop-opacity=".7"/>
      <stop offset="1" stop-color="#1dacd8"/>
    </linearGradient>
    <linearGradient id="p">
      <stop offset="0" stop-color="#05a1e6" stop-opacity=".2"/>
      <stop offset="1" stop-color="#05a1e6"/>
    </linearGradient>
    <linearGradient x1="0" y1="0" x2="1" y2="0" id="b" gradientUnits="userSpaceOnUse" gradientTransform="matrix(0 -29.6613 -29.6613 0 2008.5 86)" spreadMethod="pad">
      <stop offset="0" stop-color="#0994dc"/>
      <stop offset=".4" stop-color="#66cef5"/>
      <stop offset=".4" stop-color="#66cef5"/>
      <stop offset=".8" stop-color="#127bca"/>
      <stop offset=".8" stop-color="#127bca"/>
      <stop offset="1" stop-color="#127bca"/>
    </linearGradient>
    <linearGradient x1="0" y1="0" x2="1" y2="0" id="c" gradientUnits="userSpaceOnUse" gradientTransform="matrix(0 -30.41722 -30.41722 0 2009.6 86.8)" spreadMethod="pad">
      <stop offset="0" stop-color="#0e76bc"/>
      <stop offset=".4" stop-color="#36aee8"/>
      <stop offset=".4" stop-color="#36aee8"/>
      <stop offset=".8" stop-color="#00adef"/>
      <stop offset=".8" stop-color="#00adef"/>
      <stop offset="1" stop-color="#00adef"/>
    </linearGradient>
    <linearGradient x1="0" y1="0" x2="1" y2="0" id="r" gradientUnits="userSpaceOnUse" gradientTransform="matrix(0 24.20256 24.20256 0 2015.8 63)" spreadMethod="pad">
      <stop offset="0" stop-color="#1c63b7"/>
      <stop offset=".5" stop-color="#33bdf2"/>
      <stop offset="1" stop-color="#33bdf2" stop-opacity=".4"/>
    </linearGradient>
    <linearGradient x1="0" y1="0" x2="1" y2="0" id="d" gradientUnits="userSpaceOnUse" gradientTransform="matrix(0 -31.58095 -31.58095 0 2014.2 89.9)" spreadMethod="pad">
      <stop offset="0" stop-color="#166ab8"/>
      <stop offset=".4" stop-color="#36aee8"/>
      <stop offset=".4" stop-color="#36aee8"/>
      <stop offset=".8" stop-color="#0798dd"/>
      <stop offset=".8" stop-color="#0798dd"/>
      <stop offset="1" stop-color="#0798dd"/>
    </linearGradient>
    <linearGradient x1="0" y1="0" x2="1" y2="0" id="e" gradientUnits="userSpaceOnUse" gradientTransform="matrix(0 -33.58215 -33.58215 0 2011.7 89.7)" spreadMethod="pad">
      <stop offset="0" stop-color="#124379"/>
      <stop offset=".4" stop-color="#1487cb"/>
      <stop offset=".4" stop-color="#1487cb"/>
      <stop offset=".8" stop-color="#165197"/>
      <stop offset=".8" stop-color="#165197"/>
      <stop offset="1" stop-color="#165197"/>
    </linearGradient>
    <linearGradient x1="0" y1="0" x2="1" y2="0" id="o" gradientUnits="userSpaceOnUse" gradientTransform="matrix(0 23.57664 23.57664 0 2033.8 63.5)" spreadMethod="pad">
      <stop offset="0" stop-color="#136ab4"/>
      <stop offset=".6" stop-color="#59caf5" stop-opacity=".5"/>
      <stop offset="1" stop-color="#59caf5" stop-opacity=".2"/>
    </linearGradient>
    <linearGradient x1="0" y1="0" x2="1" y2="0" id="f" gradientUnits="userSpaceOnUse" gradientTransform="matrix(0 24.14058 24.14058 0 1991 63)" spreadMethod="pad">
      <stop offset="0" stop-color="#318ed5"/>
      <stop offset="1" stop-color="#38a7e4"/>
    </linearGradient>
    <linearGradient x1="0" y1="0" x2="1" y2="0" id="n" gradientUnits="userSpaceOnUse" gradientTransform="matrix(0 23.46596 23.46596 0 1992.6 62.9)" spreadMethod="pad">
      <stop offset="0" stop-color="#05a1e6"/>
      <stop offset="1" stop-color="#05a1e6" stop-opacity=".5"/>
    </linearGradient>
    <linearGradient x1="0" y1="0" x2="1" y2="0" id="g" gradientUnits="userSpaceOnUse" gradientTransform="matrix(0 19.8291 19.8291 0 1993.9 61.7)" spreadMethod="pad">
      <stop offset="0" stop-color="#1959a6"/>
      <stop offset=".5" stop-color="#05a1e6"/>
      <stop offset=".5" stop-color="#05a1e6"/>
      <stop offset=".9" stop-color="#7ec5ea"/>
      <stop offset="1" stop-color="#7ec5ea"/>
    </linearGradient>
    <linearGradient x1="0" y1="0" x2="1" y2="0" id="h" gradientUnits="userSpaceOnUse" gradientTransform="scale(-21.83203 21.83203) rotate(80 -47.4 -53)" spreadMethod="pad">
      <stop offset="0" stop-color="#165096"/>
      <stop offset="1" stop-color="#0d82ca"/>
    </linearGradient>
    <linearGradient x1="0" y1="0" x2="1" y2="0" id="i" gradientUnits="userSpaceOnUse" gradientTransform="matrix(0 11.23593 11.23593 0 2029.8 75.1)" spreadMethod="pad">
      <stop offset="0" stop-color="#05a1e6"/>
      <stop offset=".9" stop-color="#0495d6"/>
      <stop offset="1" stop-color="#0495d6"/>
    </linearGradient>
    <linearGradient x1="0" y1="0" x2="1" y2="0" id="m" gradientUnits="userSpaceOnUse" gradientTransform="scale(-26.30915 26.30915) rotate(-80 -36.7 47.8)" spreadMethod="pad">
      <stop offset="0" stop-color="#38a7e4" stop-opacity=".3"/>
      <stop offset="1" stop-color="#0e88d3"/>
      <stop offset="1" stop-color="#0e88d3"/>
      <stop offset="1" stop-color="#0e88d3"/>
    </linearGradient>
    <linearGradient x1="0" y1="0" x2="1" y2="0" id="j" gradientUnits="userSpaceOnUse" gradientTransform="matrix(0 -24.51245 -24.51245 0 2031 86.5)" spreadMethod="pad">
      <stop offset="0" stop-color="#168cd4"/>
      <stop offset=".5" stop-color="#1c87cc"/>
      <stop offset="1" stop-color="#154b8d"/>
    </linearGradient>
    <linearGradient x1="0" y1="0" x2="1" y2="0" id="l" gradientUnits="userSpaceOnUse" gradientTransform="scale(6.1127 -6.1127) rotate(22.5 199.3 814.2)" spreadMethod="pad">
      <stop offset="0" stop-color="#97d6ee"/>
      <stop offset=".7" stop-color="#55c1ea"/>
      <stop offset="1" stop-color="#55c1ea"/>
    </linearGradient>
    <linearGradient x1="0" y1="0" x2="1" y2="0" id="k" gradientUnits="userSpaceOnUse" gradientTransform="matrix(4.45943 2.0216 2.0216 -4.45943 2003 84.2)" spreadMethod="pad">
      <stop offset="0" stop-color="#7accec"/>
      <stop offset="1" stop-color="#3fb7ed"/>
    </linearGradient>
    <linearGradient x1="0" y1="0" x2="1" y2="0" id="s" gradientUnits="userSpaceOnUse" gradientTransform="matrix(0 -23.97563 -23.97563 0 2027.7 85.1)" spreadMethod="pad">
      <stop offset="0" stop-color="#1da7e7"/>
      <stop offset="1" stop-color="#37abe7" stop-opacity="0"/>
    </linearGradient>
    <linearGradient x1="0" y1="0" x2="1" y2="0" id="t" xlink:href="#b" gradientUnits="userSpaceOnUse" gradientTransform="rotate(90 -380.7 1455.7) scale(149.73457)" spreadMethod="pad"/>
    <linearGradient x1="0" y1="0" x2="1" y2="0" id="u" xlink:href="#c" gradientUnits="userSpaceOnUse" gradientTransform="rotate(90 -376 1456.6) scale(153.55057)" spreadMethod="pad"/>
    <linearGradient x1="0" y1="0" x2="1" y2="0" id="w" xlink:href="#d" gradientUnits="userSpaceOnUse" gradientTransform="rotate(90 -356.7 1460.3) scale(159.42523)" spreadMethod="pad"/>
    <linearGradient x1="0" y1="0" x2="1" y2="0" id="x" xlink:href="#e" gradientUnits="userSpaceOnUse" gradientTransform="rotate(90 -363.4 1454.4) scale(169.52761)" spreadMethod="pad"/>
    <linearGradient x1="0" y1="0" x2="1" y2="0" id="B" xlink:href="#f" gradientUnits="userSpaceOnUse" gradientTransform="rotate(-90 1470 482.9) scale(121.86516)" spreadMethod="pad"/>
    <linearGradient x1="0" y1="0" x2="1" y2="0" id="D" xlink:href="#g" gradientUnits="userSpaceOnUse" gradientTransform="rotate(-90 1480.2 479) scale(100.1002)" spreadMethod="pad"/>
    <linearGradient x1="0" y1="0" x2="1" y2="0" id="E" xlink:href="#h" gradientUnits="userSpaceOnUse" gradientTransform="scale(-110.21127) rotate(80 6 -14.3)" spreadMethod="pad"/>
    <linearGradient x1="0" y1="0" x2="1" y2="0" id="F" xlink:href="#i" gradientUnits="userSpaceOnUse" gradientTransform="rotate(-90 1537 354.5) scale(56.72062)" spreadMethod="pad"/>
    <linearGradient x1="0" y1="0" x2="1" y2="0" id="H" xlink:href="#j" gradientUnits="userSpaceOnUse" gradientTransform="rotate(90 -322.8 1511.3) scale(123.74243)" spreadMethod="pad"/>
    <linearGradient x1="0" y1="0" x2="1" y2="0" id="J" xlink:href="#k" gradientUnits="userSpaceOnUse" gradientTransform="matrix(4.45943 2.0216 2.0216 -4.45943 2003 84.2)" spreadMethod="pad"/>
    <linearGradient x1="0" y1="0" x2="1" y2="0" id="I" xlink:href="#l" gradientUnits="userSpaceOnUse" gradientTransform="scale(6.1127 -6.1127) rotate(22.5 199.3 814.2)" spreadMethod="pad"/>
    <linearGradient x1="0" y1="0" x2="1" y2="0" id="C" xlink:href="#n" gradientUnits="userSpaceOnUse" gradientTransform="rotate(-90 1474 479.3) scale(118.45958)" spreadMethod="pad"/>
    <linearGradient x1="937.7" y1="2076" x2="959.7" y2="2076" id="A" xlink:href="#p" gradientUnits="userSpaceOnUse" gradientTransform="matrix(4.03852 0 0 4.03852 -2849 -6485.7)"/>
    <linearGradient x1="958.7" y1="2069" x2="964.7" y2="2069" id="y" xlink:href="#q" gradientUnits="userSpaceOnUse" gradientTransform="matrix(4.03852 0 0 4.03852 -2849 -6485.7)"/>
    <linearGradient x1="0" y1="0" x2="1" y2="0" id="v" xlink:href="#r" gradientUnits="userSpaceOnUse" gradientTransform="rotate(-90 1532.2 420.7) scale(122.17805)" spreadMethod="pad"/>
    <linearGradient x1="0" y1="0" x2="1" y2="0" id="K" xlink:href="#s" gradientUnits="userSpaceOnUse" gradientTransform="rotate(90 -334.6 1506.4) scale(121.03249)" spreadMethod="pad"/>
    <linearGradient x1="0" y1="0" x2="1" y2="0" id="G" xlink:href="#m" gradientUnits="userSpaceOnUse" gradientTransform="scale(-132.81243) rotate(-80 -12.8 -1.5)" spreadMethod="pad"/>
    <linearGradient x1="0" y1="0" x2="1" y2="0" id="z" xlink:href="#o" gradientUnits="userSpaceOnUse" gradientTransform="rotate(-90 1576.4 373.5) scale(119.01834)" spreadMethod="pad"/>
    <radialGradient cx="0" cy="0" r="1" fx="0" fy="0" id="a" gradientUnits="userSpaceOnUse" gradientTransform="matrix(-368.83783 3054.2361 3027.4705 178.24222 -36 775.3)" spreadMethod="pad">
      <stop offset="0" stop-color="#fff"/>
      <stop offset=".9" stop-color="#9ca6b0"/>
      <stop offset=".9" stop-color="#9ca6b0"/>
      <stop offset="1" stop-color="#c2c6cc"/>
    </radialGradient>
  </defs>
  <path d="M260.9 113.2H258v8.7H257v-8.7H254v-1h6.8v1zM272.3 121.9h-1v-6.5-2l-.3 1-3.3 7.5h-.6l-3.3-7.4-.3-1v8.4h-1v-9.7h1.4l3 6.8.5 1.1.5-1.2 3-6.7h1.5v9.7zM263.5 158c0-.5-.2-.9-.5-1.1-.3-.3-.9-.5-1.7-.5h-1.1v3.2h1.4c1.3 0 1.9-.5 1.9-1.6m1.8 6.6h-1.6l-1-2.2c-.5-1.2-1-1.7-1.7-1.7h-.8v3.9h-1.3v-9.3h2.6c1.2 0 2 .3 2.6.8.5.5.8 1 .8 1.8 0 .6-.2 1.1-.6 1.6-.4.4-1 .7-1.8.9.5.1 1 .7 1.6 1.7l1.2 2.5zm2.9-4.6c0-1.8-.7-3.3-1.9-4.5a6.3 6.3 0 00-4.5-1.8c-1.9 0-3.4.6-4.6 1.8a6.2 6.2 0 00-1.9 4.5c0 1.9.7 3.4 2 4.7a6.2 6.2 0 004.5 1.8c1.7 0 3.2-.6 4.5-1.9a6.2 6.2 0 001.9-4.6m.8 0c0 2-.7 3.8-2 5.1a7.1 7.1 0 01-5.3 2.1c-2 0-3.8-.7-5.2-2a7 7 0 01-2-5.1 7 7 0 012-5.2 7 7 0 015.3-2c2 0 3.7.6 5.1 2 1.4 1.3 2.1 3 2.1 5.1M71.6 185.8H67V160c0-2 .1-4.4.4-7.4h-.1c-.4 1.7-.8 3-1.2 3.7l-13 29.4H51l-13-29.1c-.4-.9-.8-2.2-1.1-4h-.1l.2 7.5v25.6h-4.3v-38.2h5.9l11.7 26.6c.9 2 1.4 3.5 1.7 4.6h.2L54 174l12-26.5h5.6v38.2zM85.4 185.8H81v-27.3h4.4v27.3zm.7-37c0 .8-.3 1.4-.8 2-.6.5-1.3.8-2 .8-.8 0-1.5-.3-2-.8-.6-.5-.9-1.2-.9-2s.3-1.5.8-2c.6-.6 1.3-.9 2-.9.8 0 1.5.3 2 .8.6.6 1 1.3 1 2M112.5 184.5a14 14 0 01-7.4 2c-4 0-7-1.4-9.5-4a13.8 13.8 0 01-3.5-9.7c0-4.5 1.3-8 3.9-10.8 2.5-2.8 6-4.1 10.3-4.1 2.4 0 4.5.4 6.3 1.3v4.5a11 11 0 00-6.5-2.1c-2.8 0-5 1-6.8 2.9-1.8 2-2.7 4.6-2.7 7.9 0 3.2.8 5.7 2.5 7.5 1.7 1.9 4 2.8 6.7 2.8a11 11 0 006.7-2.3v4.1zM133.4 163c-.8-.7-2-1-3.4-1-1.7 0-3.2.9-4.4 2.5a12 12 0 00-2 7.4v13.9h-4.4v-27.3h4.3v5.6h.1c.7-2 1.6-3.5 3-4.6 1.2-1 2.6-1.5 4.1-1.5a7 7 0 012.7.4v4.5zM157.7 172.2c0-3.5-.8-6.2-2.4-8a8 8 0 00-6.4-2.6c-2.7 0-4.9.9-6.5 2.6a11.6 11.6 0 00-2.6 8.1c0 3.3.8 5.8 2.5 7.6a8.4 8.4 0 006.6 2.8c2.9 0 5-1 6.6-2.8a12 12 0 002.2-7.7m4.4-.2c0 4.4-1.2 7.9-3.6 10.5a13 13 0 01-10 4c-4 0-7.3-1.4-9.7-4a14.2 14.2 0 01-3.5-10c0-4.8 1.3-8.4 4-11 2.5-2.4 5.8-3.7 9.9-3.7 4 0 7.2 1.3 9.5 3.8a15 15 0 013.4 10.4M183.8 178.5a7 7 0 01-2.5 5.5 11 11 0 01-7.5 2.4c-2.6 0-4.8-.5-6.8-1.6V180a11 11 0 007.1 2.6c3.5 0 5.2-1.3 5.2-3.8 0-1-.4-2-1.1-2.6-.8-.7-2.3-1.6-4.5-2.5-2.3-1-4-2-4.9-3.1a7 7 0 01-1.7-5 7 7 0 012.7-5.6c1.8-1.5 4-2.3 6.9-2.3 2.2 0 4.1.5 5.8 1.3v4.4c-1.8-1.3-3.8-2-6.2-2-1.4 0-2.6.4-3.4 1.1-.9.8-1.3 1.7-1.3 2.8 0 1.2.3 2.1 1 2.8.7.6 2 1.4 4.1 2.3 2.4 1 4 2 5 3 1.4 1.3 2 3 2 5M210.4 172.2c0-3.5-.8-6.2-2.3-8a8 8 0 00-6.4-2.6c-2.8 0-5 .9-6.6 2.6a11.6 11.6 0 00-2.5 8.1c0 3.3.8 5.8 2.4 7.6a8.5 8.5 0 006.7 2.8c2.8 0 5-1 6.5-2.8a12 12 0 002.2-7.7m4.5-.2c0 4.4-1.2 7.9-3.7 10.5-2.4 2.6-5.7 4-9.9 4-4 0-7.3-1.4-9.7-4a14.2 14.2 0 01-3.5-10c0-4.8 1.3-8.4 4-11 2.4-2.4 5.7-3.7 9.9-3.7 4 0 7.2 1.3 9.5 3.8a15 15 0 013.4 10.4M234.1 149.3c-.8-.5-1.8-.8-2.9-.8-3 0-4.5 2-4.5 5.8v4.2h6.4v3.7h-6.4v23.6h-4.4v-23.6h-4.6v-3.7h4.6v-4.4c0-3 1-5.4 2.8-7a8.4 8.4 0 015.9-2.3c1.3 0 2.4.2 3.1.5v4zM251.3 185.5c-1 .6-2.4.9-4 .9-4.8 0-7.2-2.7-7.2-8v-16.2h-4.7v-3.7h4.7V152l4.4-1.4v8h6.8v3.7h-6.8v15.4c0 1.8.3 3.1 1 3.9.5.8 1.6 1.1 3 1.1 1.1 0 2-.2 2.8-.8v3.7zM15.6 292.1c0 2.2-.8 4-2.3 5.6a7.6 7.6 0 01-5.6 2.3 7.8 7.8 0 01-7.7-7.9c0-2.2.7-4 2.2-5.6a7.3 7.3 0 015.5-2.3c2.2 0 4 .8 5.6 2.4a7.6 7.6 0 012.3 5.5M113.2 298.4H99l-51.6-79.8c-1.3-1.9-2.3-4-3.2-6.2h-.4c.4 2.1.6 6.7.6 13.7v72.3H32.6v-100h15.2L98 276.7a99 99 0 014 6.7h.4c-.5-2.9-.7-7.8-.7-14.7v-70.5h11.6v100zM188.4 298.4h-53v-100H186v10.5h-39v33.3h36.1v10.6h-36.1v35h41.3v10.6zM268.8 209H240v89.4h-11.7v-89.5h-28.9v-10.6h69.4V209z"/>
  <path d="M1046.8 1860c11.4 34.6 15.6 96.3 48.7 96.3 2.5 0 5-.2 7.6-.7-30-7-33.6-68-52-99.7l-4.3 4.1" fill="url(#t)" transform="translate(-937.6 -1834.5)"/>
  <path d="M1051.2 1856c18.3 31.5 21.9 92.6 52 99.6 2.3-.4 4.7-1.1 7-2-27-13.1-34.4-72.4-55.2-101l-3.8 3.3" fill="url(#u)" transform="translate(-937.6 -1834.5)"/>
  <path d="M140 2.6c-2.5 0-5 .3-7.6.8a58.4 58.4 0 00-20.4 8.5c1.9 1.8 3.7 4 5.4 6.3A73 73 0 01138 5.5c2.6-1 5.2-1.7 7.8-2.1-1.9-.5-3.8-.8-6-.8" fill="#14559a"/>
  <path d="M1131.3 1941.5c2.8-2.2 5.5-4.6 8.3-7.3-11.5-34.4-15.6-97-48.9-97-2.4 0-4.8.2-7.2.6 30.4 7.6 34.2 73.6 47.8 103.7" fill="url(#v)" transform="translate(-937.6 -1834.5)"/>
  <path d="M146 3.4a24 24 0 00-6-.8h13a39 39 0 00-7 .8" fill="#3092c4"/>
  <path d="M193.1 114.3a49.3 49.3 0 01-3.7-4 69 69 0 01-16.8 8.9 25.8 25.8 0 0011.6 2.6c6.2 0 11.1-.7 15.3-2.7a29.1 29.1 0 01-6.4-4.8" fill="#1969bc"/>
  <path d="M1075.8 1840c27.1 14.2 29.5 78.6 51.2 104.7a92 92 0 004.3-3.2c-13.6-30-17.4-96.1-47.8-103.7a47 47 0 00-7.7 2.2" fill="url(#w)" transform="translate(-937.6 -1834.5)"/>
  <path d="M1055 1852.6c20.8 28.6 28.3 87.9 55.2 101a69 69 0 0016.8-8.9c-21.7-26.1-24-90.5-51.2-104.7a73 73 0 00-20.8 12.6" fill="url(#x)" transform="translate(-937.6 -1834.5)"/>
  <path d="M1033.5 1859.2c-3.3 7.4-6.6 17-10.6 29.7 8-11.3 16-21 24-28.9a86.9 86.9 0 00-3.6-9.2c-3.2 2.5-6.5 5.3-9.8 8.4" fill="url(#y)" transform="translate(-937.6 -1834.5)"/>
  <path d="M108.6 14.2l-2.9 2.1a87 87 0 013.5 9.2l4.4-4c-1.6-2.7-3.2-5.1-5-7.3" fill="#2b74b1"/>
  <path d="M112 11.9l-3.4 2.3c1.8 2.2 3.4 4.6 5 7.3 1.2-1.2 2.5-2.3 3.8-3.3a50.5 50.5 0 00-5.4-6.3" fill="#125a9e"/>
  <path d="M1235 1834.5c-15.4 59.3-47.5 106.9-74.4 118.9l-1.5.6h-.2l-.4.2-.2.1-.6.3h-.3l-.3.2h-.4l-.3.2-.5.1-.3.1-.4.1h-.2l-.5.2-.5.1c1.3.5 2.5.7 3.9.7 25.5 0 51.2-45.8 93.8-121.8H1235z" fill="url(#z)" transform="translate(-937.6 -1834.5)"/>
  <path d="M1017.3 1839.5h.1l.5-.2h.2l.4-.2 1-.4h.2l.4-.2h.2l.4-.1h.2l1.4-.4h.2l.4-.2h.2l.4-.1 1-.2h.7l.4-.1h.2l1-.2-2.8-.1c-28.7 0-68.3 53.3-86.2 122.4h3.5a1000 1000 0 0015.5-28.8c12.5-49 38-82.3 60.5-91.2" fill="url(#A)" transform="translate(-937.6 -1834.5)"/>
  <path d="M96 24.7c3.2-3.1 6.5-6 9.7-8.4-.7-1.6-1.5-3.1-2.3-4.5-2.7 3.2-5 7.4-7.5 12.9M98.3 5.5c1.8 1.5 3.5 3.7 5 6.3L105 10a28.8 28.8 0 00-6.6-4.6" fill="#0d82ca"/>
  <path d="M956.8 1930.7c26.2-50.5 38.6-82.5 60.5-91.2-22.6 8.9-48 42.2-60.5 91.2" fill="url(#B)" transform="translate(-937.6 -1834.5)"/>
  <path d="M104.9 10.1l-1.5 1.7c.8 1.4 1.6 2.9 2.3 4.5l2.9-2.1a39.4 39.4 0 00-3.7-4" fill="#127bca"/>
  <path d="M968.7 1959.3h-1l-1 .1h-.1c26.5-.7 38.6-14 44.7-33.2l11.6-37.3a527.5 527.5 0 00-33.5 55.2 27.5 27.5 0 01-20.7 15.2" fill="url(#C)" transform="translate(-937.6 -1834.5)"/>
  <path d="M968.7 1959.3c7-1 15.3-5.1 20.7-15.2a529.8 529.8 0 0133.5-55.2 310 310 0 0110.6-29.7c-22.1 21-44.3 56-64.8 100" fill="url(#D)" transform="translate(-937.6 -1834.5)"/>
  <path d="M19.2 96.2A999 999 0 013.7 125h10c1.3-10 3.2-19.7 5.5-28.8" fill="#05a1e6"/>
  <path d="M1025.8 1837.4H1025.2h-.2l-.4.2h-.2l-.8.1h-.1l-.4.1h-.2l-.4.2h-.2l-1.4.4h-.2l-.4.1-.2.1-.4.1h-.2l-1 .4-.4.2h-.2l-.4.2h-.1c-22 8.7-34.4 40.7-60.6 91.2-2.3 9-4.2 18.7-5.5 28.8H967.7l.4-.1h.6c20.5-44 42.7-79.1 64.8-100.2 2.5-5.5 4.9-9.7 7.5-12.9a24.4 24.4 0 00-5.1-6.3l-.4-.2-.3-.2-.3-.1-.3-.2h-.3l-.6-.3-.2-.1-.5-.2h-.2l-.6-.3-.7-.2h-.2l-.6-.2h-.1l-1.5-.3h-.1l-.7-.2-.8-.1h-1.7" fill="url(#E)" transform="translate(-937.6 -1834.5)"/>
  <path d="M1175 1867.3l-12.7 40.5c13.8-19 27.5-43 40.4-70.7-15.1 4.8-23.2 15.7-27.7 30.2" fill="url(#F)" transform="translate(-937.6 -1834.5)"/>
  <path d="M1162.7 1952.4l-2 1c26.8-12 59-59.6 74.3-118.9h-3.1c-35.3 63-46.7 105.3-69.2 117.9" fill="url(#G)" transform="translate(-937.6 -1834.5)"/>
  <path d="M207.5 112.6c5.9-7.1 10.7-19.3 17.2-39.3-7.5 10.3-15 19.2-22.7 26.4a69 69 0 005.5 12.9" fill="#079ae1"/>
  <path d="M207.5 112.6a24 24 0 01-8 6.5c2.5 1.3 5.2 2.2 8.2 2.6l1.4.1h4.4l.2-.1.6-.1h.1l.7-.1 1.3-.3c-3.5-1.3-6.4-4.3-8.9-8.5" fill="#1969bc"/>
  <path d="M158 121.8a40.3 40.3 0 0014.6-2.6 25.8 25.8 0 0011.6 2.6h-26.3zM184.2 121.8c6.2 0 11.1-.7 15.3-2.7 2.5 1.3 5.2 2.2 8.2 2.6l1.4.1h1.5-26.4z" fill="#1e5cb3"/>
  <path d="M210.6 121.8H213.5l.2-.1.6-.1h.2l.6-.2 1.3-.2c1.3.4 2.5.7 3.9.7h-9.7z" fill="#1d60b5"/>
  <path d="M202 99.8a121.1 121.1 0 01-12.6 10.5c1.2 1.4 2.4 2.8 3.7 4 2 2 4.1 3.5 6.4 4.8l1.6-.8a24 24 0 006.5-5.7 69 69 0 01-5.6-12.8" fill="#175fab"/>
  <path d="M1222 1834.5h-15.6l-2.5.1-1.2 2.5a439.1 439.1 0 01-40.4 70.6c-6.5 20-11.3 32.2-17.2 39.4 2.5 4.2 5.4 7.2 9 8.5h.2l.2-.1.5-.1h.2l.4-.2h.3l.5-.2.3-.1.3-.1.4-.1.2-.1.7-.3h.2l.4-.2h.2l1.5-.7 2.1-1c22.5-12.6 33.9-54.8 69.2-117.9h-9.9z" fill="url(#H)" transform="translate(-937.6 -1834.5)"/>
  <path d="M89.1 2.8H89.8l.8.2h.1l.6.1h.2l1.4.4h.2l.6.2h.1a10.4 10.4 0 01.8.3l.6.2h.2l.4.2.3.1.6.3h.2l.4.2.3.2.3.1a29 29 0 017 4.9c.7-.8 1.6-1.6 2.4-2.2a27.1 27.1 0 00-18.2-5.2" fill="#7dcbec"/>
  <path d="M104.9 10.1c1.3 1.2 2.5 2.6 3.7 4L112 12c-1.5-1.5-3-2.8-4.7-4a22 22 0 00-2.4 2.2" fill="#5ec5ed"/>
  <path d="M1999 85.8h.4c1.2 0 2.2-.3 3.2-1 1 .8 2.1 1 3.7 1h-7.9.5" fill="url(#I)" transform="matrix(5.04815 0 0 -5.04815 -10001.9 436.1)"/>
  <path d="M2006.3 85.9c-1.6 0-2.8-.3-3.7-1l.9-.9c1.3.9 2.7 1.5 4 1.7l1.5.2h-2.7z" fill="url(#J)" transform="matrix(5.04815 0 0 -5.04815 -10001.9 436.1)"/>
  <path d="M1162.3 1907.8l12.7-40.5c4.5-14.5 12.6-25.4 27.7-30.2l1.2-2.5c-24.7 1.5-36.2 14-42 32.7-10.2 32.4-16.3 53.5-22.2 66.9 7.5-7.2 15-16.1 22.6-26.4" fill="url(#K)" transform="translate(-937.6 -1834.5)"/>
</svg>