<svg width="1600" height="2500" viewBox="0 0 256 400" xmlns="http://www.w3.org/2000/svg" preserveAspectRatio="xMinYMin meet"><path d="M28 398.3v-34.8c0-2.4-1.7-3.5-3.8-3.5-4.3 0-9.6 1-14.4 3.2v35H0v-64.5h9.8V355a46.7 46.7 0 0115.8-3.2c8.9 0 12.2 5.5 12.2 13v33.5h-9.7zm28-21c.4 11.6 2.7 13.9 9.9 13.9 5.6 0 12-1.9 16.9-3.8l1.6 7.4a45.7 45.7 0 01-19.2 4.6c-16.3 0-18.8-9-18.8-23.2 0-7.9.5-15 2.4-21.5a56 56 0 0119.7-2.9c13.4 0 17.5 7.5 17.5 20.4v5H56zM68.6 360c-3 0-7.6 0-11.4.8a52 52 0 00-1.1 9.6h20.4c0-6.7-1.2-10.4-8-10.4zm35.8 3.2v35h-9.8v-39.4c8.3-4.5 17-5.9 22.7-6.3v8.2c-4 .3-9 .8-12.9 2.5zm38.8 36.2c-14.6 0-21.2-7.2-21.2-23.6 0-17.4 8.7-24 21.2-24 14.6 0 21.2 7.2 21.2 23.6 0 17.4-8.7 24-21.2 24zm0-39.4c-7.5 0-11.7 4.3-11.7 15.8 0 12.6 3.5 15.4 11.7 15.4 7.5 0 11.7-4.3 11.7-15.8 0-12.5-3.5-15.4-11.7-15.4zm68.5 38.3H200a63.8 63.8 0 00-12.3-21h-5.1v21h-9.8v-64.6h9.8v37h4.6c5-5 8.8-11.4 11.5-17.7h11a76.6 76.6 0 01-14 19.7c6.5 8.2 11.5 16.9 15.8 25.6zm18.4 1.1c-9 0-12.3-5.4-12.3-13V353h9.7v34.7c0 2.4 1.8 3.5 4 3.5 4.2 0 10-1 14.8-3.2v-35h9.8v39.3a52 52 0 01-26 7.1zm-4.4-82.1H30.3A30.3 30.3 0 010 287V30.3A30.3 30.3 0 0130.3 0h195.3A30.3 30.3 0 01256 30.3V287a30.3 30.3 0 01-30.3 30.3z" fill="#6762A6"/><path d="M160.4 273.6v-126s8.2-30.1-101 12.3c-.2.6-.2-116.5-.2-116.5l35.7-.2v75S194.7 79 194.7 148v125.6h-34.3zm20.3-185h-37.8c13.6-16.6 25.9-45.2 25.9-45.2h39.1s-6.7 18.6-27.2 45.2zM59.9 273.4v-71.8l35.8 36L60 273.3z" fill="#FFF"/></svg>