<svg width="65" height="34" xmlns="http://www.w3.org/2000/svg">
  <defs>
    <clipPath id="a">
      <path d="M0 792h612V0H0v792z"/>
    </clipPath>
  </defs>
  <path fill="none" d="M-1-1h67v36H-1z"/>
  <path d="M71.2 8.3v-.8c0-.2-.1-.4-.5-.4L68.6 7c-2.2 0-3.6.8-3.6 3.3v14.1c0 .3.2.5.5.5h1.1c.3 0 .5-.2.5-.5V13.5h3.7c.3 0 .4-.2.4-.4v-.8c0-.3-.2-.4-.4-.4H67v-1.6c0-1.4.3-1.6 1.6-1.6h2.1c.3-.1.5-.2.5-.4zm7.5 4.8V12c0-.3-.2-.4-.5-.4-2 0-3.6.1-4.9.7-.3.1-.4.3-.4.5v11.4c0 .3.2.5.4.5h1.2c.3 0 .4-.2.4-.5V13.7c.9-.2 1.7-.2 3.3-.2.5 0 .5-.1.5-.4zM89 23.9V12.8c0-.3-.1-.4-.5-.5-1.3-.3-2.9-.5-4.4-.5-3.5 0-5.2 2.3-5.2 5.8v1.6c0 3.5 1.6 5.8 5.2 5.8 1.4 0 3.1-.2 4.4-.5.4-.2.5-.3.5-.6zm-2.1-.9l-2.8.2c-2.3 0-3.1-1.6-3.1-4.1v-1.6c0-2.5.7-4.1 3.1-4.1l2.8.2V23zm19.2 1.3v-8.5c0-2.4-1.4-4.1-4.2-4.1h-.5c-1.4 0-2.4.2-3.1.8-.7-.7-1.7-.8-3.1-.8h-.5c-2.8 0-4.2 1.7-4.2 4.1v8.5c0 .3.2.5.4.5h1.2c.3 0 .4-.2.4-.5v-8.5c0-2 .9-2.3 2.1-2.3h.5c1.5 0 2 .3 2 1.6v9.2c0 .3.2.5.4.5h1.2c.3 0 .4-.2.4-.5v-9.2c0-1.3.5-1.6 2-1.6h.5c1.3 0 2.1.3 2.1 2.3v8.5c0 .3.2.5.4.5h1.2c.7 0 .8-.2.8-.5zm11.6-5.8v-1.3c0-3.3-1.8-5.5-5.2-5.5-3.4 0-5.3 2.1-5.3 5.5v2.1c0 4.4 2.6 5.7 5.4 5.7 1.6 0 2.9-.1 4.2-.4.4-.1.5-.2.5-.5v-.8c0-.2-.2-.3-.4-.3h-.1c-1.1.2-2.8.3-4.2.3-2.2 0-3.3-1-3.3-3.8V19h7.9c.3 0 .5-.2.5-.5zm-2.1-1.1h-6.3v-.2c0-2.5 1.1-3.7 3.2-3.7s3.1 1 3.1 3.7v.2zm19.3 2.3v-7.4c0-.3-.2-.5-.5-.5h-1.1c-.3 0-.5.2-.5.5v7.4c0 2.6-1 3.5-2.9 3.5l-1.9-.3V12.3c0-.3-.2-.5-.5-.5h-1.2c-.3 0-.5.2-.5.5v10.6l-1.9.3c-2 0-2.9-.9-2.9-3.5v-7.4c0-.3-.2-.5-.5-.5h-1.1c-.3 0-.5.2-.5.5v7.4c0 4.2 2.3 5.3 4.8 5.3 1.2 0 2.2-.2 3.1-.6 1 .4 1.9.6 3.1.6 2.7 0 5-1.1 5-5.3zm12.1-.5v-1.8c0-3.5-1.8-5.7-5.3-5.7s-5.3 2.3-5.3 5.7v1.8c0 3.5 1.8 5.7 5.3 5.7 3.5.1 5.3-2.2 5.3-5.7zm-2.1 0c0 2.4-1 3.9-3.2 3.9s-3.2-1.5-3.2-3.9v-1.8c0-2.4 1-3.9 3.2-3.9s3.2 1.5 3.2 3.9v1.8zm9.5-6.1V12c0-.3-.2-.4-.5-.4-2 0-3.6.1-4.9.7-.3.1-.4.3-.4.5v11.4c0 .3.2.5.4.5h1.2c.3 0 .4-.2.4-.5V13.7c.9-.2 1.7-.2 3.3-.2.5 0 .5-.1.5-.4zM165 24.5l-.1-.2-5.3-6.3 5.2-5.6.1-.3c0-.1-.1-.3-.4-.3H163c-.2 0-.3 0-.5.2l-4.7 5.3V7.6c0-.3-.2-.5-.5-.5h-1.1c-.3 0-.5.2-.5.5v16.8c0 .3.2.5.5.5h1.1c.3 0 .5-.2.5-.5v-5.6l4.7 5.8c.2.2.3.3.5.3h1.7c.2-.1.3-.2.3-.4z" fill="#58585a"/>
  <path d="M61.5 24.2V9.3c0-.3-.2-.5-.5-.5h-2.2c-.3 0-.5.2-.5.5v14.9c0 .3.2.5.5.5H61c.3-.1.5-.3.5-.5zm-11.4.4V8.9c-1.2 0-3.1.8-3.1 2.5v10.7l-2.3.2c-2 0-2.5-1.4-2.5-3.3v-7.7c-.1-1.9-2.2-2.4-3.1-2.4v10c0 3.6 1.8 5.9 5.6 5.9l2.3-.3v.2c.5 3.1-3.3 1.9-5.3 1.7-1.5 0-2.5 1.2-2.8 2.6.9.3 3.7.6 5.7.8 3.6.1 5.5-1.9 5.5-5.2zm5.7-.4V9.3c0-.3-.2-.5-.5-.5h-2.2c-.3 0-.5.2-.5.5v14.9c0 .3.2.5.5.5h2.2c.3-.1.5-.3.5-.5zM54.2 4.6c.9 0 1.6.7 1.6 1.6 0 .9-.7 1.6-1.6 1.6-.9 0-1.6-.7-1.6-1.6 0-.8.7-1.6 1.6-1.6zm5.8 0c.9 0 1.6.7 1.6 1.6 0 .9-.7 1.6-1.6 1.6-.9 0-1.6-.7-1.6-1.6 0-.8.7-1.6 1.6-1.6z" fill="#1d82c5"/>
  <g clip-path="url(#a)" transform="matrix(.5058 0 0 -.5058 -72.9 177)" fill-rule="evenodd">
    <path fill="#7cc734" d="M184 331.1c-3.1 9 6 18.5 13.4 18.8 4.4-2.3 8.2-8.4 8-16.7-.5-10.2-7.8-19-15.6-27a74.3 74.3 0 01-5.8 25"/>
    <path fill="#3e7fca" d="M166.5 282.9a32.6 32.6 0 006.8 23.6 49 49 0 014.5 6.7c2-1 7.8-4 10.9-8.7-.5-7-5.7-19.8-22.2-21.6"/>
    <path fill="#eb6e2e" d="M160.2 320.7c-13.1 3.7-16.4 15.2-15.8 23 12.8 5.2 26.6-.1 34.5-11.2a55 55 0 009.8-26.4c-3.8 5-8.7 8-14.8 10.3-4.2 1.5-8.1 2.6-13.7 4.3"/>
  </g>
</svg>