<svg id="e13pk2jyug8ee1" xmlns="http://www.w3.org/2000/svg" xmlns:xlink="http://www.w3.org/1999/xlink" viewBox="0 0 420.220000 406.420000" shape-rendering="geometricPrecision" text-rendering="geometricPrecision"><style><![CDATA[#e13pk2jyug8ee7_to {animation: e13pk2jyug8ee7_to__to 2000ms linear infinite alternate forwards}@keyframes e13pk2jyug8ee7_to__to { 0% {transform: translate(314.210000px,227.410000px)} 35% {transform: translate(314.210000px,228.410000px)} 60% {transform: translate(314.210000px,218.410000px)} 70% {transform: translate(314.210000px,218.410000px)} 95% {transform: translate(314.210000px,228.410000px)} 100% {transform: translate(314.210000px,228.410000px)} }#e13pk2jyug8ee8_to {animation: e13pk2jyug8ee8_to__to 2000ms linear infinite alternate forwards}@keyframes e13pk2jyug8ee8_to__to { 0% {transform: translate(314.210000px,228.410000px)} 35% {transform: translate(314.210000px,228.410000px)} 60% {transform: translate(314.210000px,218.410000px)} 70% {transform: translate(314.210000px,218.410000px)} 95% {transform: translate(314.210000px,228.410000px)} 100% {transform: translate(314.210000px,228.410000px)} }#e13pk2jyug8ee13 {animation: e13pk2jyug8ee13__sz 2000ms linear infinite alternate forwards}@keyframes e13pk2jyug8ee13__sz { 0% {width: 0px;height: 2.530000px} 65% {width: 0px;height: 2.530000px} 100% {width: 34.450000px;height: 2.530000px} }#e13pk2jyug8ee14 {animation: e13pk2jyug8ee14__sz 2000ms linear infinite alternate forwards}@keyframes e13pk2jyug8ee14__sz { 0% {width: 0px;height: 2.370000px} 30% {width: 0px;height: 2.370000px} 70% {width: 21.030000px;height: 2.370000px} 100% {width: 21.030000px;height: 2.370000px} }#e13pk2jyug8ee15 {animation: e13pk2jyug8ee15__sz 2000ms linear infinite alternate forwards}@keyframes e13pk2jyug8ee15__sz { 0% {width: 0px;height: 2.390000px} 50% {width: 0px;height: 2.390000px} 100% {width: 66px;height: 2.390000px} }#e13pk2jyug8ee16 {animation: e13pk2jyug8ee16__sz 2000ms linear infinite alternate forwards}@keyframes e13pk2jyug8ee16__sz { 0% {width: 0px;height: 2.390000px} 60% {width: 0px;height: 2.390000px} 100% {width: 37px;height: 2.390000px} }#e13pk2jyug8ee17 {animation: e13pk2jyug8ee17__sz 2000ms linear infinite alternate forwards}@keyframes e13pk2jyug8ee17__sz { 0% {width: 0px;height: 2.500000px} 5% {width: 0px;height: 2.500000px} 45% {width: 28.910000px;height: 2.500000px} 100% {width: 28.910000px;height: 2.500000px} }#e13pk2jyug8ee18 {animation: e13pk2jyug8ee18__sz 2000ms linear infinite alternate forwards}@keyframes e13pk2jyug8ee18__sz { 0% {width: 0px;height: 2.530000px} 40% {width: 35px;height: 2.530000px} 100% {width: 35px;height: 2.530000px} }#e13pk2jyug8ee19 {animation: e13pk2jyug8ee19__sz 2000ms linear infinite alternate forwards}@keyframes e13pk2jyug8ee19__sz { 0% {width: 0px;height: 2.810000px} 45% {width: 0px;height: 2.810000px} 90% {width: 28.880000px;height: 2.810000px} 100% {width: 28.880000px;height: 2.810000px} }#e13pk2jyug8ee20 {animation: e13pk2jyug8ee20__sz 2000ms linear infinite alternate forwards}@keyframes e13pk2jyug8ee20__sz { 0% {width: 0px;height: 2.370000px} 50% {width: 0px;height: 2.370000px} 90% {width: 26.600000px;height: 2.370000px} 100% {width: 26.600000px;height: 2.370000px} }#e13pk2jyug8ee21 {animation: e13pk2jyug8ee21__sz 2000ms linear infinite alternate forwards}@keyframes e13pk2jyug8ee21__sz { 0% {width: 0px;height: 2.630000px} 95% {width: 54.900000px;height: 2.630000px} 100% {width: 54.900000px;height: 2.630000px} }#e13pk2jyug8ee22 {animation: e13pk2jyug8ee22__sz 2000ms linear infinite alternate forwards}@keyframes e13pk2jyug8ee22__sz { 0% {width: 0px;height: 2.530000px} 45% {width: 0px;height: 2.530000px} 80% {width: 34.450000px;height: 2.530000px} 100% {width: 34.450000px;height: 2.530000px} }#e13pk2jyug8ee23 {animation: e13pk2jyug8ee23__sz 2000ms linear infinite alternate forwards}@keyframes e13pk2jyug8ee23__sz { 0% {width: 0px;height: 2.370000px} 45% {width: 0px;height: 2.370000px} 85% {width: 21.030000px;height: 2.370000px} 100% {width: 21.030000px;height: 2.370000px} }#e13pk2jyug8ee24 {animation: e13pk2jyug8ee24__sz 2000ms linear infinite alternate forwards}@keyframes e13pk2jyug8ee24__sz { 0% {width: 0px;height: 2.390000px} 50% {width: 66.170000px;height: 2.390000px} 100% {width: 66.170000px;height: 2.390000px} }#e13pk2jyug8ee25 {animation: e13pk2jyug8ee25__sz 2000ms linear infinite alternate forwards}@keyframes e13pk2jyug8ee25__sz { 0% {width: 0px;height: 2.390000px} 15% {width: 0px;height: 2.390000px} 55% {width: 37.800000px;height: 2.390000px} 100% {width: 37.800000px;height: 2.390000px} }#e13pk2jyug8ee26 {animation: e13pk2jyug8ee26__sz 2000ms linear infinite alternate forwards}@keyframes e13pk2jyug8ee26__sz { 0% {width: 0px;height: 2.500000px} 35% {width: 0px;height: 2.500000px} 90% {width: 28.910000px;height: 2.500000px} 100% {width: 28.910000px;height: 2.500000px} }#e13pk2jyug8ee27 {animation: e13pk2jyug8ee27__sz 2000ms linear infinite alternate forwards}@keyframes e13pk2jyug8ee27__sz { 0% {width: 0px;height: 2.530000px} 50% {width: 0px;height: 2.530000px} 90% {width: 34.450000px;height: 2.530000px} 100% {width: 34.450000px;height: 2.530000px} }#e13pk2jyug8ee28 {animation: e13pk2jyug8ee28__sz 2000ms linear infinite alternate forwards}@keyframes e13pk2jyug8ee28__sz { 0% {width: 0px;height: 2.530000px} 25% {width: 0px;height: 2.530000px} 70% {width: 34.450000px;height: 2.530000px} 100% {width: 34.450000px;height: 2.530000px} }#e13pk2jyug8ee29 {animation: e13pk2jyug8ee29__sz 2000ms linear infinite alternate forwards}@keyframes e13pk2jyug8ee29__sz { 0% {width: 0px;height: 2.370000px} 40% {width: 0px;height: 2.370000px} 95% {width: 21.030000px;height: 2.370000px} 100% {width: 21.030000px;height: 2.370000px} }#e13pk2jyug8ee30 {animation: e13pk2jyug8ee30__sz 2000ms linear infinite alternate forwards}@keyframes e13pk2jyug8ee30__sz { 0% {width: 0px;height: 2.390000px} 55% {width: 0px;height: 2.390000px} 100% {width: 66.170000px;height: 2.390000px} }#e13pk2jyug8ee31 {animation: e13pk2jyug8ee31__sz 2000ms linear infinite alternate forwards}@keyframes e13pk2jyug8ee31__sz { 0% {width: 0px;height: 2.390000px} 70% {width: 0px;height: 2.390000px} 100% {width: 37.240000px;height: 2.390000px} }#e13pk2jyug8ee32_to {animation: e13pk2jyug8ee32_to__to 2000ms linear infinite alternate forwards}@keyframes e13pk2jyug8ee32_to__to { 0% {transform: translate(0.804495px,0px)} 20% {transform: translate(0.804495px,0px)} 60% {transform: translate(5px,0px)} 100% {transform: translate(0.804495px,0px)} }#e13pk2jyug8ee64_tr {animation: e13pk2jyug8ee64_tr__tr 2000ms linear infinite alternate forwards}@keyframes e13pk2jyug8ee64_tr__tr { 0% {transform: translate(227.145617px,206.743522px) rotate(0deg)} 50% {transform: translate(227.145617px,206.743522px) rotate(5deg)} 100% {transform: translate(227.145617px,206.743522px) rotate(-5deg)} }#e13pk2jyug8ee85_to {animation: e13pk2jyug8ee85_to__to 2000ms linear infinite alternate forwards}@keyframes e13pk2jyug8ee85_to__to { 0% {transform: translate(-82.880000px,-1.750000px)} 35% {transform: translate(-82.880000px,-1.750000px)} 60% {transform: translate(-82.880000px,-10.750000px)} 70% {transform: translate(-82.880000px,-10.750000px)} 95% {transform: translate(-82.880000px,-1.750000px)} 100% {transform: translate(-82.880000px,-1.750000px)} }#e13pk2jyug8ee86_to {animation: e13pk2jyug8ee86_to__to 2000ms linear infinite alternate forwards}@keyframes e13pk2jyug8ee86_to__to { 0% {transform: translate(-82.880000px,-1.750000px)} 35% {transform: translate(-82.880000px,-1.750000px)} 60% {transform: translate(-82.880000px,-10.750000px)} 70% {transform: translate(-82.880000px,-10.750000px)} 95% {transform: translate(-82.880000px,-1.750000px)} 100% {transform: translate(-82.880000px,-1.750000px)} }#e13pk2jyug8ee87_to {animation: e13pk2jyug8ee87_to__to 2000ms linear infinite alternate forwards}@keyframes e13pk2jyug8ee87_to__to { 0% {transform: translate(-82.880000px,-1.750000px)} 35% {transform: translate(-82.880000px,-1.750000px)} 60% {transform: translate(-82.880000px,-10.750000px)} 70% {transform: translate(-82.880000px,-10.750000px)} 95% {transform: translate(-82.880000px,-1.750000px)} 100% {transform: translate(-82.880000px,-1.750000px)} }#e13pk2jyug8ee90_to {animation: e13pk2jyug8ee90_to__to 2000ms linear infinite alternate forwards}@keyframes e13pk2jyug8ee90_to__to { 0% {transform: translate(0px,0px)} 15% {transform: translate(0px,0px)} 50% {transform: translate(0px,-10px)} 85% {transform: translate(0px,0px)} 100% {transform: translate(0px,0px)} }#e13pk2jyug8ee109 {animation: e13pk2jyug8ee109__sz 2000ms linear infinite alternate forwards}@keyframes e13pk2jyug8ee109__sz { 0% {width: 0px;height: 1.670000px} 50% {width: 27.030000px;height: 1.670000px} 100% {width: 27.030000px;height: 1.670000px} }#e13pk2jyug8ee110 {animation: e13pk2jyug8ee110__sz 2000ms linear infinite alternate forwards}@keyframes e13pk2jyug8ee110__sz { 0% {width: 0px;height: 1.570000px} 25% {width: 0px;height: 1.570000px} 65% {width: 16.810000px;height: 1.570000px} 100% {width: 16.810000px;height: 1.570000px} }#e13pk2jyug8ee111 {animation: e13pk2jyug8ee111__sz 2000ms linear infinite alternate forwards}@keyframes e13pk2jyug8ee111__sz { 0% {width: 0px;height: 1.580000px} 70% {width: 0px;height: 1.580000px} 100% {width: 48.100000px;height: 1.580000px} }#e13pk2jyug8ee112 {animation: e13pk2jyug8ee112__sz 2000ms linear infinite alternate forwards}@keyframes e13pk2jyug8ee112__sz { 0% {width: 0px;height: 1.660000px} 65% {width: 0px;height: 1.660000px} 100% {width: 56.080000px;height: 1.660000px} }#e13pk2jyug8ee113 {animation: e13pk2jyug8ee113__sz 2000ms linear infinite alternate forwards}@keyframes e13pk2jyug8ee113__sz { 0% {width: 0px;height: 1.670000px} 15% {width: 0px;height: 1.670000px} 55% {width: 22.800000px;height: 1.670000px} 100% {width: 22.800000px;height: 1.670000px} }#e13pk2jyug8ee114 {animation: e13pk2jyug8ee114__sz 2000ms linear infinite alternate forwards}@keyframes e13pk2jyug8ee114__sz { 0% {width: 0px;height: 1.860000px} 45% {width: 0px;height: 1.860000px} 85% {width: 31px;height: 1.860000px} 100% {width: 31px;height: 1.860000px} }#e13pk2jyug8ee115 {animation: e13pk2jyug8ee115__sz 2000ms linear infinite alternate forwards}@keyframes e13pk2jyug8ee115__sz { 0% {width: 0px;height: 1.570000px} 40% {width: 0px;height: 1.570000px} 75% {width: 17px;height: 1.570000px} 100% {width: 17px;height: 1.570000px} }#e13pk2jyug8ee116 {animation: e13pk2jyug8ee116__sz 2000ms linear infinite alternate forwards}@keyframes e13pk2jyug8ee116__sz { 0% {width: 0px;height: 1.740000px} 65% {width: 0px;height: 1.740000px} 95% {width: 36.330000px;height: 1.740000px} 100% {width: 36.330000px;height: 1.740000px} }#e13pk2jyug8ee117 {animation: e13pk2jyug8ee117__sz 2000ms linear infinite alternate forwards}@keyframes e13pk2jyug8ee117__sz { 0% {width: 0px;height: 1.670000px} 70% {width: 22.800000px;height: 1.670000px} 100% {width: 22.800000px;height: 1.670000px} }#e13pk2jyug8ee118 {animation: e13pk2jyug8ee118__sz 2000ms linear infinite alternate forwards}@keyframes e13pk2jyug8ee118__sz { 0% {width: 0px;height: 1.570000px} 20% {width: 0px;height: 1.570000px} 65% {width: 14px;height: 1.570000px} 100% {width: 14px;height: 1.570000px} }#e13pk2jyug8ee119 {animation: e13pk2jyug8ee119__sz 2000ms linear infinite alternate forwards}@keyframes e13pk2jyug8ee119__sz { 0% {width: 0px;height: 1.580000px} 35% {width: 0px;height: 1.580000px} 100% {width: 35px;height: 1.580000px} }]]></style><defs><linearGradient id="e13pk2jyug8ee6-fill" x1="-69.529332" y1="135.637072" x2="-136.090084" y2="-563.250821" spreadMethod="pad" gradientUnits="userSpaceOnUse"><stop id="e13pk2jyug8ee6-fill-0" offset="0%" stop-color="rgba(255,255,255,0)"/><stop id="e13pk2jyug8ee6-fill-1" offset="100%" stop-color="rgb(255,255,255)"/></linearGradient><linearGradient id="e13pk2jyug8ee8-fill" x1="328.459996" y1="115.530004" x2="335.499996" y2="271.300004" spreadMethod="pad" gradientUnits="userSpaceOnUse"><stop id="e13pk2jyug8ee8-fill-0" offset="0%" stop-color="rgba(255,255,255,0)"/><stop id="e13pk2jyug8ee8-fill-1" offset="95%" stop-color="rgb(255,255,255)"/></linearGradient><linearGradient id="e13pk2jyug8ee12-fill" x1="-0" y1="90.070000" x2="535.739993" y2="419.130006" spreadMethod="pad" gradientUnits="userSpaceOnUse"><stop id="e13pk2jyug8ee12-fill-0" offset="0%" stop-color="rgba(255,255,255,0)"/><stop id="e13pk2jyug8ee12-fill-1" offset="95%" stop-color="rgb(255,255,255)"/></linearGradient><linearGradient id="e13pk2jyug8ee34-fill" x1="664.459988" y1="185.870001" x2="662.699988" y2="42.130001" spreadMethod="pad" gradientUnits="userSpaceOnUse"><stop id="e13pk2jyug8ee34-fill-0" offset="0%" stop-color="rgba(255,255,255,0)"/><stop id="e13pk2jyug8ee34-fill-1" offset="95%" stop-color="rgb(255,255,255)"/></linearGradient><linearGradient id="e13pk2jyug8ee62-fill" x1="333.510000" y1="249.740000" x2="350.870000" y2="249.740000" spreadMethod="pad" gradientUnits="userSpaceOnUse"><stop id="e13pk2jyug8ee62-fill-0" offset="0%" stop-color="rgb(229,198,214)"/><stop id="e13pk2jyug8ee62-fill-1" offset="42%" stop-color="rgb(234,212,208)"/><stop id="e13pk2jyug8ee62-fill-2" offset="100%" stop-color="rgb(240,233,203)"/></linearGradient><linearGradient id="e13pk2jyug8ee63-fill" x1="267.380000" y1="249.250000" x2="284.320000" y2="249.250000" spreadMethod="pad" gradientUnits="userSpaceOnUse"><stop id="e13pk2jyug8ee63-fill-0" offset="0%" stop-color="rgb(229,198,214)"/><stop id="e13pk2jyug8ee63-fill-1" offset="42%" stop-color="rgb(234,212,208)"/><stop id="e13pk2jyug8ee63-fill-2" offset="100%" stop-color="rgb(240,233,203)"/></linearGradient><linearGradient id="e13pk2jyug8ee65-fill" x1="301.280000" y1="200.390000" x2="317.790000" y2="200.390000" spreadMethod="pad" gradientUnits="userSpaceOnUse"><stop id="e13pk2jyug8ee65-fill-0" offset="0%" stop-color="rgb(229,198,214)"/><stop id="e13pk2jyug8ee65-fill-1" offset="42%" stop-color="rgb(234,212,208)"/><stop id="e13pk2jyug8ee65-fill-2" offset="100%" stop-color="rgb(240,233,203)"/></linearGradient><linearGradient id="e13pk2jyug8ee66-fill" x1="287.940000" y1="179.860000" x2="295.960000" y2="179.860000" spreadMethod="pad" gradientUnits="userSpaceOnUse"><stop id="e13pk2jyug8ee66-fill-0" offset="0%" stop-color="rgb(229,198,214)"/><stop id="e13pk2jyug8ee66-fill-1" offset="42%" stop-color="rgb(234,212,208)"/><stop id="e13pk2jyug8ee66-fill-2" offset="100%" stop-color="rgb(240,233,203)"/></linearGradient><linearGradient id="e13pk2jyug8ee67-fill" x1="322.220000" y1="181.360000" x2="330.070000" y2="181.360000" spreadMethod="pad" gradientUnits="userSpaceOnUse"><stop id="e13pk2jyug8ee67-fill-0" offset="0%" stop-color="rgb(229,198,214)"/><stop id="e13pk2jyug8ee67-fill-1" offset="42%" stop-color="rgb(234,212,208)"/><stop id="e13pk2jyug8ee67-fill-2" offset="100%" stop-color="rgb(240,233,203)"/></linearGradient><linearGradient id="e13pk2jyug8ee70-fill" x1="280.580000" y1="279.540000" x2="334.700000" y2="279.540000" spreadMethod="pad" gradientUnits="userSpaceOnUse"><stop id="e13pk2jyug8ee70-fill-0" offset="0%" stop-color="rgba(1,1,1,0)"/><stop id="e13pk2jyug8ee70-fill-1" offset="95%" stop-color="rgb(1,1,1)"/></linearGradient><linearGradient id="e13pk2jyug8ee72-fill" x1="0" y1="20.330000" x2="57.380000" y2="20.330000" spreadMethod="pad" gradientUnits="userSpaceOnUse"><stop id="e13pk2jyug8ee72-fill-0" offset="0%" stop-color="rgba(1,1,1,0)"/><stop id="e13pk2jyug8ee72-fill-1" offset="95%" stop-color="rgb(1,1,1)"/></linearGradient><linearGradient id="e13pk2jyug8ee74-fill" x1="308.920000" y1="236.450000" x2="307.820000" y2="294.750000" spreadMethod="pad" gradientUnits="userSpaceOnUse"><stop id="e13pk2jyug8ee74-fill-0" offset="0%" stop-color="rgba(1,1,1,0)"/><stop id="e13pk2jyug8ee74-fill-1" offset="95%" stop-color="rgb(1,1,1)"/></linearGradient><linearGradient id="e13pk2jyug8ee81-fill" x1="307.680000" y1="333.300000" x2="310.760000" y2="306.900000" spreadMethod="pad" gradientUnits="userSpaceOnUse"><stop id="e13pk2jyug8ee81-fill-0" offset="0%" stop-color="rgba(1,1,1,0)"/><stop id="e13pk2jyug8ee81-fill-1" offset="95%" stop-color="rgb(1,1,1)"/></linearGradient><linearGradient id="e13pk2jyug8ee88-fill" x1="0.485983" y1="0.996441" x2="0.485983" y2="0.097143" spreadMethod="pad" gradientUnits="objectBoundingBox"><stop id="e13pk2jyug8ee88-fill-0" offset="0%" stop-color="rgb(23,79,252)"/><stop id="e13pk2jyug8ee88-fill-1" offset="100%" stop-color="rgb(232,176,3)"/></linearGradient><linearGradient id="e13pk2jyug8ee89-fill" x1="572.799976" y1="622.010015" x2="571.919976" y2="586.370015" spreadMethod="pad" gradientUnits="userSpaceOnUse"><stop id="e13pk2jyug8ee89-fill-0" offset="0%" stop-color="rgba(1,1,1,0)"/><stop id="e13pk2jyug8ee89-fill-1" offset="95%" stop-color="rgb(1,1,1)"/></linearGradient><linearGradient id="e13pk2jyug8ee121-fill" x1="201.670000" y1="322.040000" x2="201.960000" y2="395.670000" spreadMethod="pad" gradientUnits="userSpaceOnUse"><stop id="e13pk2jyug8ee121-fill-0" offset="0%" stop-color="rgba(1,1,1,0)"/><stop id="e13pk2jyug8ee121-fill-1" offset="95%" stop-color="rgb(1,1,1)"/></linearGradient><linearGradient id="e13pk2jyug8ee123-fill" x1="218.420000" y1="332.910000" x2="227.800000" y2="369" spreadMethod="pad" gradientUnits="userSpaceOnUse"><stop id="e13pk2jyug8ee123-fill-0" offset="0%" stop-color="rgba(1,1,1,0)"/><stop id="e13pk2jyug8ee123-fill-1" offset="95%" stop-color="rgb(1,1,1)"/></linearGradient><linearGradient id="e13pk2jyug8ee125-fill" x1="194.820000" y1="330.930000" x2="178.980000" y2="369.350000" spreadMethod="pad" gradientUnits="userSpaceOnUse"><stop id="e13pk2jyug8ee125-fill-0" offset="0%" stop-color="rgba(1,1,1,0)"/><stop id="e13pk2jyug8ee125-fill-1" offset="95%" stop-color="rgb(1,1,1)"/></linearGradient><linearGradient id="e13pk2jyug8ee127-fill" x1="207.730000" y1="349.860000" x2="189.250000" y2="403.540000" spreadMethod="pad" gradientUnits="userSpaceOnUse"><stop id="e13pk2jyug8ee127-fill-0" offset="0%" stop-color="rgba(1,1,1,0)"/><stop id="e13pk2jyug8ee127-fill-1" offset="95%" stop-color="rgb(1,1,1)"/></linearGradient></defs><path id="e13pk2jyug8ee2" style="isolation:isolate" d="M485.930000,268C473.860000,285.310000,456.930000,298.630000,443.540000,315C423.880000,339,411.160000,370.160000,384.540000,386.170000C371.950000,393.730000,357.380000,397.110000,343.100000,400.390000C320.150000,405.670000,296.370000,410.950000,273.240000,406.490000C255.510000,403.080000,239.420000,394.140000,223.660000,385.320000L211.190000,378.320000C208.440000,376.760000,205.660000,375.230000,202.880000,373.670000L194.780000,369.130000C171,355.730000,147.370000,341.750000,127.330000,323.280000C105,302.780000,87.250000,275.800000,83.560000,245.670000C79.280000,210.850000,95.660000,174.280000,124.480000,154.270000C140.290000,143.270000,159.140000,137.150000,174.670000,125.740000C199.180000,107.740000,212.670000,78.950000,229.500000,53.660000C260.690000,6.770000,320.670000,-15.670000,371.180000,17.660000C390.810000,30.600000,405.660000,49.820000,416.570000,70.660000C425.790000,88.230000,432.570000,107.290000,444.830000,122.890000C458.830000,140.710000,479.210000,153.050000,491.460000,172.120000C509.810000,200.660000,505.370000,240.140000,485.930000,268Z" transform="matrix(1 0 0 1 -82.88557496499979 -2.33741323499959)" opacity="0.24" fill="rgb(23,79,252)" stroke="none" stroke-width="1"/><path id="e13pk2jyug8ee3" style="isolation:isolate" d="M226.860000,374.700000C225.390000,376.310000,227.800000,378.550000,229.860000,379.330000C243.300934,384.473166,257.568659,387.116592,271.960000,387.130000L269.510000,391.300000C292.067389,397.563611,315.888482,397.687895,338.510000,391.660000L335.030000,386.260000L355.240000,385.260000C358.450000,385.110000,369.710000,386.430000,371.840000,383.580000C377.970000,375.370000,353.020000,375.050000,350.340000,374.940000Q310.410000,373.270000,270.430000,373.650000Q259.530000,373.750000,248.630000,374C245.190000,374.120000,229,372.420000,226.860000,374.700000Z" transform="matrix(1 0 0 1 -82.88000000000000 -1.75000000000000)" opacity="0.42" fill="rgb(23,79,252)" stroke="none" stroke-width="1"/><path id="e13pk2jyug8ee4" d="M340.480000,300.710000Q339.670000,316.710000,338.550000,332.770000C338.328029,338.181652,337.625261,343.562845,336.450000,348.850000C335.661393,351.993320,334.548769,355.046333,333.130000,357.960000C332.520000,359.210000,331.650000,360.570000,330.280000,360.710000C328.550000,360.890000,327.350000,359.040000,326.730000,357.410000C323.640000,349.410000,323.640000,340.650000,323.440000,332.090000Q323.270000,325.450000,322.910000,318.800000C322.620000,313.450000,322.040000,307.660000,318.420000,303.700000C317.320000,302.500000,315.980000,301.520000,314.900000,300.290000C310.490000,295.290000,311.810000,286.860000,316.560000,282.150000C320.250000,278.500000,330.960000,273.680000,336.130000,276.700000C342.270000,280.280000,340.770000,294.940000,340.480000,300.710000Z" transform="matrix(1 0 0 1 -82.88000000000000 -1.75000000000000)" fill="rgb(96,97,97)" stroke="none" stroke-width="1"/><path id="e13pk2jyug8ee5" d="M309.520000,282.400000C311.066135,284.850343,311.791211,287.729632,311.590000,290.620000C311.340000,299.310000,306.180000,307,303.590000,315.310000C299.710000,327.860000,301.870000,341.310000,302.260000,354.480000C302.440462,356.293506,302.215011,358.124444,301.600000,359.840000C300.931149,361.581311,299.255332,362.727713,297.390000,362.720000C296.070327,362.474776,294.881999,361.765327,294.040000,360.720000C287.680000,353.920000,287.890000,343.550000,286.840000,334.310000C285.660000,324.020000,282.470000,314.080000,279.750000,304.090000C278.520000,299.580000,277.370000,294.960000,277.660000,290.300000C277.950000,285.640000,279.910000,280.850000,283.760000,278.210000C290.750000,273.430000,304.530000,275.250000,309.520000,282.400000Z" transform="matrix(1 0 0 1 -82.88000000000000 -1.75000000000000)" fill="rgb(96,97,97)" stroke="none" stroke-width="1"/><rect id="e13pk2jyug8ee6" width="148.400000" height="91.010000" rx="11.560000" ry="11.560000" transform="matrix(-1 0 -0 -1 407.93000000000001 158.55000000000007)" fill="url(#e13pk2jyug8ee6-fill)" stroke="none" stroke-width="1"/><g id="e13pk2jyug8ee7_to" transform="translate(314.210000,227.410000)"><rect id="e13pk2jyug8ee7" width="133.540000" height="147.240000" rx="12.140000" ry="12.140000" transform="rotate(180) translate(131.770000,41.460000)" opacity="0.52" fill="rgb(23,79,252)" stroke="none" stroke-width="1"/></g><g id="e13pk2jyug8ee8_to" transform="translate(314.210000,228.410000)"><rect id="e13pk2jyug8ee8" width="133.540000" height="147.240000" rx="12.140000" ry="12.140000" transform="rotate(180) translate(131.770000,41.460000)" fill="url(#e13pk2jyug8ee8-fill)" stroke="none" stroke-width="1"/></g><rect id="e13pk2jyug8ee9" width="148.400000" height="91.010000" rx="11.560000" ry="11.560000" transform="matrix(-1 0 -0 -1 407.93000000000001 158.55000000000007)" opacity="0.52" fill="rgb(23,79,252)" stroke="none" stroke-width="1"/><rect id="e13pk2jyug8ee10" width="225.690000" height="10.820000" rx="0" ry="0" transform="matrix(-1 0 -0 -1 333.15999999999997 266.17999999999995)" opacity="0.52" fill="rgb(23,79,252)" stroke="none" stroke-width="1"/><rect id="e13pk2jyug8ee11" width="172.750000" height="127.530000" rx="12.560000" ry="12.560000" transform="matrix(-1 0 -0 -1 311.70999999999992 241.44000000000005)" fill="rgb(23,79,252)" stroke="none" stroke-width="1"/><rect id="e13pk2jyug8ee12" width="172.750000" height="127.530000" rx="12.560000" ry="12.560000" transform="matrix(-1 0 -0 -1 311.70999999999992 241.44000000000005)" fill="url(#e13pk2jyug8ee12-fill)" stroke="none" stroke-width="1"/><rect id="e13pk2jyug8ee13" width="0" height="2.530000" rx="0" ry="0" transform="matrix(1 0 0 1 160.19999999999999 133.88000000000000)" fill="rgb(255,255,255)" stroke="none" stroke-width="1"/><rect id="e13pk2jyug8ee14" width="0" height="2.370000" rx="0" ry="0" transform="matrix(1 0 0 1 160.19999999999999 138.77000000000001)" fill="rgb(255,255,255)" stroke="none" stroke-width="1"/><rect id="e13pk2jyug8ee15" width="0" height="2.390000" rx="0" ry="0" transform="matrix(1 0 0 1 189.71000000000001 138.77000000000001)" fill="rgb(255,255,255)" stroke="none" stroke-width="1"/><rect id="e13pk2jyug8ee16" width="0" height="2.390000" rx="0" ry="0" transform="matrix(1 0 0 1 262.06999999999999 138.77000000000001)" fill="rgb(255,255,255)" stroke="none" stroke-width="1"/><rect id="e13pk2jyug8ee17" width="0" height="2.500000" rx="0" ry="0" transform="matrix(1 0 0 1 171.13999999999999 143.68000000000001)" fill="rgb(255,255,255)" stroke="none" stroke-width="1"/><rect id="e13pk2jyug8ee18" width="0" height="2.530000" rx="0" ry="0" transform="matrix(1 0 0 1 180.41999999999999 148.56000000000000)" fill="rgb(255,255,255)" stroke="none" stroke-width="1"/><rect id="e13pk2jyug8ee19" width="0" height="2.810000" rx="0" ry="0" transform="matrix(1 0 0 1 217.12000000000000 148.56000000000000)" fill="rgb(255,255,255)" stroke="none" stroke-width="1"/><rect id="e13pk2jyug8ee20" width="0" height="2.370000" rx="0" ry="0" transform="matrix(1 0 0 1 180.37000000000000 153.44999999999999)" fill="rgb(255,255,255)" stroke="none" stroke-width="1"/><rect id="e13pk2jyug8ee21" width="0" height="2.630000" rx="0" ry="0" transform="matrix(1 0 0 1 209.52000000000001 153.44999999999999)" fill="rgb(255,255,255)" stroke="none" stroke-width="1"/><rect id="e13pk2jyug8ee22" width="0" height="2.530000" rx="0" ry="0" transform="matrix(1 0 0 1 160.19999999999999 160.06999999999999)" fill="rgb(255,255,255)" stroke="none" stroke-width="1"/><rect id="e13pk2jyug8ee23" width="0" height="2.370000" rx="0" ry="0" transform="matrix(1 0 0 1 160.19999999999999 164.96000000000001)" fill="rgb(255,255,255)" stroke="none" stroke-width="1"/><rect id="e13pk2jyug8ee24" width="0" height="2.390000" rx="0" ry="0" transform="matrix(1 0 0 1 189.71000000000001 164.96000000000001)" fill="rgb(255,255,255)" stroke="none" stroke-width="1"/><rect id="e13pk2jyug8ee25" width="0" height="2.390000" rx="0" ry="0" transform="matrix(1 0 0 1 262.06999999999999 164.96000000000001)" fill="rgb(255,255,255)" stroke="none" stroke-width="1"/><rect id="e13pk2jyug8ee26" width="0" height="2.500000" rx="0" ry="0" transform="matrix(1 0 0 1 171.13999999999999 169.84999999999999)" fill="rgb(255,255,255)" stroke="none" stroke-width="1"/><rect id="e13pk2jyug8ee27" width="0" height="2.530000" rx="0" ry="0" transform="matrix(1 0 0 1 180.41999999999999 174.75000000000000)" fill="rgb(255,255,255)" stroke="none" stroke-width="1"/><rect id="e13pk2jyug8ee28" width="0" height="2.530000" rx="0" ry="0" transform="matrix(1 0 0 1 160.19999999999999 186.25000000000000)" fill="rgb(255,255,255)" stroke="none" stroke-width="1"/><rect id="e13pk2jyug8ee29" width="0" height="2.370000" rx="0" ry="0" transform="matrix(1 0 0 1 160.19999999999999 191.13999999999999)" fill="rgb(255,255,255)" stroke="none" stroke-width="1"/><rect id="e13pk2jyug8ee30" width="0" height="2.390000" rx="0" ry="0" transform="matrix(1 0 0 1 189.71000000000001 191.13999999999999)" fill="rgb(255,255,255)" stroke="none" stroke-width="1"/><rect id="e13pk2jyug8ee31" width="0" height="2.390000" rx="0" ry="0" transform="matrix(1 0 0 1 262.06999999999999 191.13999999999999)" fill="rgb(255,255,255)" stroke="none" stroke-width="1"/><g id="e13pk2jyug8ee32_to" transform="translate(0.804495,0)"><g id="e13pk2jyug8ee32" transform="translate(0,0)" opacity="0.52"><rect id="e13pk2jyug8ee33" width="93.230000" height="57.180000" rx="7.260000" ry="7.260000" transform="matrix(-1 0 -0 -1 319.42999999999989 89.81000000000002)" opacity="0.52" fill="rgb(23,79,252)" stroke="none" stroke-width="1"/><rect id="e13pk2jyug8ee34" width="93.565000" height="57.180000" rx="7.260000" ry="7.260000" transform="matrix(-1 0 -0 -1 317.94550491499996 89.81000000000012)" fill="url(#e13pk2jyug8ee34-fill)" stroke="none" stroke-width="1"/><rect id="e13pk2jyug8ee35" width="17.140000" height="1.260000" rx="0" ry="0" transform="matrix(1 0 0 1 237.34999999999999 42.71000000000000)" fill="rgb(23,79,252)" stroke="none" stroke-width="1"/><rect id="e13pk2jyug8ee36" width="10.460000" height="1.180000" rx="0" ry="0" transform="matrix(1 0 0 1 237.34999999999999 45.15000000000000)" fill="rgb(23,79,252)" stroke="none" stroke-width="1"/><rect id="e13pk2jyug8ee37" width="32.920000" height="1.190000" rx="0" ry="0" transform="matrix(1 0 0 1 252.03000000000000 45.15000000000000)" fill="rgb(23,79,252)" stroke="none" stroke-width="1"/><rect id="e13pk2jyug8ee38" width="18.530000" height="1.190000" rx="0" ry="0" transform="matrix(1 0 0 1 288.01999999999998 45.15000000000000)" fill="rgb(23,79,252)" stroke="none" stroke-width="1"/><rect id="e13pk2jyug8ee39" width="14.380000" height="1.240000" rx="0" ry="0" transform="matrix(1 0 0 1 242.78999999999999 47.58000000000000)" fill="rgb(23,79,252)" stroke="none" stroke-width="1"/><rect id="e13pk2jyug8ee40" width="17.140000" height="1.260000" rx="0" ry="0" transform="matrix(1 0 0 1 247.41000000000000 50.02000000000000)" fill="rgb(23,79,252)" stroke="none" stroke-width="1"/><rect id="e13pk2jyug8ee41" width="14.360000" height="1.400000" rx="0" ry="0" transform="matrix(1 0 0 1 265.66000000000003 50.02000000000000)" fill="rgb(23,79,252)" stroke="none" stroke-width="1"/><rect id="e13pk2jyug8ee42" width="13.230000" height="1.180000" rx="0" ry="0" transform="matrix(1 0 0 1 247.38000000000000 52.45000000000000)" fill="rgb(23,79,252)" stroke="none" stroke-width="1"/><rect id="e13pk2jyug8ee43" width="27.310000" height="1.310000" rx="0" ry="0" transform="matrix(1 0 0 1 261.88999999999999 52.45000000000000)" fill="rgb(23,79,252)" stroke="none" stroke-width="1"/><rect id="e13pk2jyug8ee44" width="17.140000" height="1.260000" rx="0" ry="0" transform="matrix(1 0 0 1 237.34999999999999 55.74000000000000)" fill="rgb(23,79,252)" stroke="none" stroke-width="1"/><rect id="e13pk2jyug8ee45" width="10.460000" height="1.180000" rx="0" ry="0" transform="matrix(1 0 0 1 237.34999999999999 58.17000000000000)" fill="rgb(23,79,252)" stroke="none" stroke-width="1"/><rect id="e13pk2jyug8ee46" width="32.920000" height="1.190000" rx="0" ry="0" transform="matrix(1 0 0 1 252.03000000000000 58.17000000000000)" fill="rgb(23,79,252)" stroke="none" stroke-width="1"/><rect id="e13pk2jyug8ee47" width="18.530000" height="1.190000" rx="0" ry="0" transform="matrix(1 0 0 1 288.01999999999998 58.17000000000000)" fill="rgb(23,79,252)" stroke="none" stroke-width="1"/><rect id="e13pk2jyug8ee48" width="14.380000" height="1.240000" rx="0" ry="0" transform="matrix(1 0 0 1 242.78999999999999 60.60000000000000)" fill="rgb(23,79,252)" stroke="none" stroke-width="1"/><rect id="e13pk2jyug8ee49" width="17.140000" height="1.260000" rx="0" ry="0" transform="matrix(1 0 0 1 247.41000000000000 63.04000000000000)" fill="rgb(23,79,252)" stroke="none" stroke-width="1"/><rect id="e13pk2jyug8ee50" width="14.360000" height="1.400000" rx="0" ry="0" transform="matrix(1 0 0 1 265.66000000000003 63.04000000000000)" fill="rgb(23,79,252)" stroke="none" stroke-width="1"/><rect id="e13pk2jyug8ee51" width="13.230000" height="1.180000" rx="0" ry="0" transform="matrix(1 0 0 1 247.38000000000000 65.47000000000000)" fill="rgb(23,79,252)" stroke="none" stroke-width="1"/><rect id="e13pk2jyug8ee52" width="27.310000" height="1.310000" rx="0" ry="0" transform="matrix(1 0 0 1 261.88999999999999 65.47000000000000)" fill="rgb(23,79,252)" stroke="none" stroke-width="1"/><rect id="e13pk2jyug8ee53" width="17.140000" height="1.260000" rx="0" ry="0" transform="matrix(1 0 0 1 237.34999999999999 68.76000000000001)" fill="rgb(23,79,252)" stroke="none" stroke-width="1"/><rect id="e13pk2jyug8ee54" width="10.460000" height="1.180000" rx="0" ry="0" transform="matrix(1 0 0 1 237.34999999999999 71.20000000000000)" fill="rgb(23,79,252)" stroke="none" stroke-width="1"/><rect id="e13pk2jyug8ee55" width="32.920000" height="1.190000" rx="0" ry="0" transform="matrix(1 0 0 1 252.03000000000000 71.20000000000000)" fill="rgb(23,79,252)" stroke="none" stroke-width="1"/><rect id="e13pk2jyug8ee56" width="18.530000" height="1.190000" rx="0" ry="0" transform="matrix(1 0 0 1 288.01999999999998 71.20000000000000)" fill="rgb(23,79,252)" stroke="none" stroke-width="1"/><rect id="e13pk2jyug8ee57" width="14.380000" height="1.240000" rx="0" ry="0" transform="matrix(1 0 0 1 242.78999999999999 73.63000000000000)" fill="rgb(23,79,252)" stroke="none" stroke-width="1"/><rect id="e13pk2jyug8ee58" width="17.140000" height="1.260000" rx="0" ry="0" transform="matrix(1 0 0 1 247.41000000000000 76.06000000000000)" fill="rgb(23,79,252)" stroke="none" stroke-width="1"/><rect id="e13pk2jyug8ee59" width="14.360000" height="1.400000" rx="0" ry="0" transform="matrix(1 0 0 1 265.66000000000003 76.06000000000000)" fill="rgb(23,79,252)" stroke="none" stroke-width="1"/><rect id="e13pk2jyug8ee60" width="13.230000" height="1.180000" rx="0" ry="0" transform="matrix(1 0 0 1 247.38000000000000 78.50000000000000)" fill="rgb(23,79,252)" stroke="none" stroke-width="1"/><rect id="e13pk2jyug8ee61" width="27.310000" height="1.310000" rx="0" ry="0" transform="matrix(1 0 0 1 261.88999999999999 78.50000000000000)" fill="rgb(23,79,252)" stroke="none" stroke-width="1"/></g></g><path id="e13pk2jyug8ee62" d="M349.790000,250.100000C350.500000,252.100000,351.170000,254.200000,350.730000,256.260000C350.570764,256.972847,350.282707,257.650628,349.880000,258.260000C347.880000,261.360000,343.140000,261.840000,339.880000,259.980000C336.620000,258.120000,334.780000,254.560000,333.880000,250.980000C333.525195,249.780899,333.406333,248.524362,333.530000,247.280000C333.820000,245.110000,335.260000,243.280000,336.760000,241.680000C338.760000,239.600000,342.430000,236.880000,345.120000,239.380000C347.540000,241.620000,348.720000,247.110000,349.790000,250.100000Z" transform="matrix(1 0 0 1 -82.88000000000000 -1.75000000000000)" fill="url(#e13pk2jyug8ee62-fill)" stroke="none" stroke-width="1"/><path id="e13pk2jyug8ee63" d="M268,249.500000C267.562312,250.326308,267.358323,251.256359,267.410000,252.190000C267.531396,252.790336,267.769206,253.361080,268.110000,253.870000C268.951357,255.379966,270.075070,256.714163,271.420000,257.800000C272.776966,258.887540,274.495873,259.420008,276.230000,259.290000C278.790000,259.010000,280.820000,256.980000,282.180000,254.790000C283.593593,252.709060,284.336843,250.245519,284.310000,247.730000C284.151467,245.046493,282.801685,242.574338,280.630000,240.990000C278.700000,239.590000,274.680000,238.320000,272.500000,239.920000C270.320000,241.520000,269.090000,246.920000,268,249.500000Z" transform="matrix(1 0 0 1 -82.88000000000000 -1.75000000000000)" fill="url(#e13pk2jyug8ee63-fill)" stroke="none" stroke-width="1"/><g id="e13pk2jyug8ee64_tr" transform="translate(227.145617,206.743522) rotate(0)"><g id="e13pk2jyug8ee64" transform="translate(-226.647238,-206.013096)"><path id="e13pk2jyug8ee65" d="M317.570000,202.660000C317.767261,203.565983,317.821250,204.497292,317.730000,205.420000C317.360000,207.980000,314.810000,209.770000,312.250000,210.090000C309.690000,210.410000,307.130000,209.550000,304.740000,208.600000C304.006000,208.352655,303.326835,207.965530,302.740000,207.460000C302.154070,206.847851,301.755100,206.081133,301.590000,205.250000C301.303235,203.808786,301.215751,202.335018,301.330000,200.870000L301.490000,195.710000C301.440859,194.700601,301.640008,193.694553,302.070000,192.780000C303.070000,191.070000,305.360000,190.780000,307.350000,190.650000C309.960000,190.540000,313.890000,190.650000,315.610000,193.030000C317.330000,195.410000,317.130000,199.890000,317.570000,202.660000Z" transform="matrix(1 0 0 1 -82.88000000000000 -1.75000000000000)" fill="url(#e13pk2jyug8ee65-fill)" stroke="none" stroke-width="1"/><path id="e13pk2jyug8ee66" d="M290.650000,174.710000C290.252853,174.610097,289.837147,174.610097,289.440000,174.710000C288.554537,175.127248,287.992412,176.021183,288,177C287.935248,177.940505,287.995778,178.885444,288.180000,179.810000C288.352513,181.357643,288.986664,182.817583,290,184C291.050213,185.171125,292.766671,185.468920,294.150000,184.720000C298.400000,181.780000,294.400000,175.530000,290.650000,174.710000Z" transform="matrix(1 0 0 1 -82.88000000000000 -1.75000000000000)" fill="url(#e13pk2jyug8ee66-fill)" stroke="none" stroke-width="1"/><path id="e13pk2jyug8ee67" d="M327.060000,176.050000C327.779538,175.841667,328.554993,175.978295,329.160000,176.420000C329.577158,176.895324,329.820453,177.498272,329.850000,178.130000C330.104894,179.403885,330.155527,180.710207,330,182C329.832641,183.282023,329.203291,184.458944,328.230000,185.310000C327.472084,185.868030,326.617818,186.281604,325.710000,186.530000C325.028435,186.839253,324.252574,186.867989,323.550000,186.610000C322.929580,186.187620,322.532782,185.507920,322.470000,184.760000C321.680000,180.890000,322.890000,176.810000,327.060000,176.050000Z" transform="matrix(1 0 0 1 -82.88000000000000 -1.75000000000000)" fill="url(#e13pk2jyug8ee67-fill)" stroke="none" stroke-width="1"/><path id="e13pk2jyug8ee68" d="M325.637170,160.424218C326.415002,162.582396,326.688722,164.887195,326.437745,167.165274C326.214841,172.425395,325.660027,177.666554,324.776552,182.858055C324.116077,186.753989,323.075329,190.937409,319.963093,193.395911C319.073305,193.988730,318.233306,194.651774,317.451288,195.378575C316.910899,195.953547,316.530626,196.667306,316.030266,197.291845C313.498447,200.434367,308.394779,200.434367,304.912277,198.342657C301.429774,196.250947,299.198170,192.662326,297.156703,189.172838C294.905085,185.326471,292.673481,181.301664,292.273194,176.870411C291.942956,173.361097,292.773553,169.663430,291.422582,166.401948C290.421863,164.002926,288.350375,162.079742,287.890044,159.532020C287.712158,157.815482,287.924149,156.081264,288.510490,154.456401C289.321072,151.571626,290.561964,148.240751,293.514085,147.457599C295.665632,146.882627,297.887228,147.973092,300.118832,148.042485C302.960874,148.141618,305.852953,146.565400,308.554894,147.457599C312.027390,148.607544,313.558490,152.572871,317.020978,153.861602C320.483467,155.150333,324.026012,156.776117,325.637170,160.424218Z" transform="matrix(1 0 0 1 -82.88000000000000 -1.75000000000000)" fill="rgb(242,243,126)" stroke="none" stroke-width="1"/></g></g><path id="e13pk2jyug8ee69" d="M337.090000,211.790000C326.950000,203.380000,312.320000,203.590000,299.270000,205.370000C293.880000,206.100000,288.390000,207.070000,283.650000,209.750000C275.710000,214.250000,271.010000,222.950000,268.540000,231.750000C267.230000,236.420000,266.540000,241.750000,269.160000,245.850000C271.910000,250.090000,277.390000,251.550000,282.410000,252.110000C283.179039,252.127169,283.930355,252.344293,284.590000,252.740000C285.281514,253.380802,285.715331,254.251993,285.810000,255.190000C287.210000,262.490000,284.370000,270.690000,288.120000,277.100000C291.750000,283.290000,299.860000,284.920000,307.010000,285.470000C316.260000,286.180000,326.290000,285.920000,333.800000,280.470000C335.045792,279.632792,336.104696,278.546649,336.910000,277.280000C338.150000,275.160000,338.220000,272.580000,338.250000,270.130000C338.330000,264.790000,336.380000,254.050000,338.980000,249.340000C341.160000,245.420000,347.370000,245.400000,349.550000,240.920000C353.680000,232.400000,343.300000,216.930000,337.090000,211.790000Z" transform="matrix(1 0 0 1 -82.88000000000000 -1.75000000000000)" fill="rgb(255,255,255)" stroke="none" stroke-width="1"/><path id="e13pk2jyug8ee70" d="M300.390000,279.840000L300.460000,291.210000C300.509586,291.647838,300.425943,292.090451,300.220000,292.480000C299.887363,292.890864,299.405589,293.153323,298.880000,293.210000C295.800000,293.930000,292.580000,293.520000,289.420000,293.530000C286.260000,293.540000,282.850000,294.100000,280.580000,296.310000C284.030000,298.860000,288.480000,299.560000,292.750000,300.060000Q302.230000,301.190000,311.750000,301.560000C315.863939,301.863464,319.999710,301.648444,324.060000,300.920000C327.629600,300.203275,330.976017,298.643214,333.820000,296.370000C331.030000,293.370000,326.410000,293.430000,322.330000,293.430000C318.360314,293.428645,314.393914,293.201612,310.450000,292.750000C309.549166,292.762336,308.683629,292.400186,308.060000,291.750000C307.727662,291.157508,307.594451,290.473926,307.680000,289.800000C307.755966,287.275362,308.074091,284.763845,308.630000,282.300000C308.748485,281.487018,309.075809,280.718668,309.580000,280.070000C310.470822,279.308775,311.589553,278.865504,312.760000,278.810000C317.390248,278.038425,321.930194,276.798734,326.310000,275.110000C328.113853,274.512167,329.791935,273.586679,331.260000,272.380000C335.200000,268.800000,335.030000,262.630000,334.120000,257.380000C326.868999,261.589538,318.680913,263.920152,310.300000,264.160000C304.570000,264.320000,292.140000,261.860000,288.110000,267.380000C286.110000,270.170000,288.240000,272.750000,290.450000,274.680000C291.410000,275.500000,300.390000,279.730000,300.390000,279.840000Z" transform="matrix(1 0 0 1 -82.88000000000000 -1.75000000000000)" fill="url(#e13pk2jyug8ee70-fill)" stroke="none" stroke-width="1"/><rect id="e13pk2jyug8ee71" width="57.380000" height="40.670000" rx="16.790000" ry="16.790000" transform="matrix(1 0 0 1 197.44999999999999 226.41999999999999)" fill="rgb(23,79,252)" stroke="none" stroke-width="1"/><rect id="e13pk2jyug8ee72" width="57.380000" height="40.670000" rx="16.790000" ry="16.790000" transform="matrix(1 0 0 1 197.44999999999999 226.41999999999999)" fill="url(#e13pk2jyug8ee72-fill)" stroke="none" stroke-width="1"/><rect id="e13pk2jyug8ee73" width="57.380000" height="40.670000" rx="16.790000" ry="16.790000" transform="matrix(1 0 0 1 197.44999999999999 230.16000000000000)" fill="rgb(23,79,252)" stroke="none" stroke-width="1"/><path id="e13pk2jyug8ee74" d="M317.850000,254.360000C316.132604,255.121577,314.324464,255.659313,312.470000,255.960000C307.470000,256.880000,301.630000,256.680000,298.030000,253.050000C297.465840,252.498395,297.008193,251.847520,296.680000,251.130000C295.680000,248.700000,296.990000,245.770000,299.140000,244.230000C301.290000,242.690000,304.020000,242.280000,306.650000,242.150000C309.870000,241.990000,315.990000,241.440000,318.800000,243.610000C322.160000,246.210000,321.640000,252.580000,317.850000,254.360000Z" transform="matrix(1 0 0 1 -82.88000000000000 -1.75000000000000)" fill="url(#e13pk2jyug8ee74-fill)" stroke="none" stroke-width="1"/><rect id="e13pk2jyug8ee75" width="7.830000" height="64.640000" rx="3.910000" ry="0" transform="matrix(-1 0 -0 -1 229.09999999999991 311.00999999999999)" fill="rgb(255,255,255)" stroke="none" stroke-width="1"/><path id="e13pk2jyug8ee76" d="M332.150000,357.800000C334.150000,359.450000,334.650000,362.310000,335.530000,364.800000C336.750000,368.200000,339.010000,371.290000,339.310000,374.890000C339.440914,375.957353,339.263961,377.039886,338.800000,378.010000C337.889929,379.536994,336.237550,380.465982,334.460000,380.450000C332.709854,380.413764,331.003748,379.894665,329.530000,378.950000C326.923698,377.397735,324.771666,375.187074,323.290000,372.540000C322.533949,371.244838,322.050717,369.808757,321.870000,368.320000C321.460000,363.810000,326.140000,353,332.150000,357.800000Z" transform="matrix(1 0 0 1 -82.88000000000000 -1.75000000000000)" fill="rgb(23,79,252)" stroke="none" stroke-width="1"/><path id="e13pk2jyug8ee77" d="M335.880000,376.880000C336.166228,377.414067,336.166228,378.055933,335.880000,378.590000C335.649092,378.837450,335.343536,379.002520,335.010000,379.060000C333.632298,379.326412,332.204782,379.065891,331.010000,378.330000C329.830946,377.607036,328.748887,376.736685,327.790000,375.740000C326.305592,374.437344,324.991841,372.952234,323.880000,371.320000C322.765957,369.661345,322.312916,367.645847,322.610000,365.670000C323.670000,360.250000,328.450000,365.110000,330.210000,367.110000C332.722130,369.963529,334.648672,373.283161,335.880000,376.880000Z" transform="matrix(1 0 0 1 -82.88000000000000 -1.75000000000000)" fill="rgb(96,97,97)" stroke="none" stroke-width="1"/><path id="e13pk2jyug8ee78" d="M293,357.910000C291,359.560000,290.500000,362.420000,289.620000,364.910000C288.400000,368.310000,286.140000,371.410000,285.840000,375C285.709386,376.070593,285.886282,377.156247,286.350000,378.130000C287.262571,379.653155,288.914484,380.578074,290.690000,380.560000C292.440977,380.529000,294.148478,380.009476,295.620000,379.060000C298.228661,377.510727,300.381388,375.299352,301.860000,372.650000C302.617607,371.355546,303.100949,369.919134,303.280000,368.430000C303.680000,363.920000,299,353.070000,293,357.910000Z" transform="matrix(1 0 0 1 -82.88000000000000 -1.75000000000000)" fill="rgb(23,79,252)" stroke="none" stroke-width="1"/><path id="e13pk2jyug8ee79" d="M288.760000,377.270000C288.479049,377.805380,288.479049,378.444620,288.760000,378.980000C288.994876,379.227594,289.303605,379.392484,289.640000,379.450000C291.017738,379.705722,292.441408,379.445903,293.640000,378.720000C294.813211,377.993048,295.891483,377.123040,296.850000,376.130000C298.340107,374.826413,299.657451,373.337679,300.770000,371.700000C301.881575,370.044036,302.334509,368.032582,302.040000,366.060000C300.970000,360.630000,296.200000,365.490000,294.430000,367.500000C291.920407,370.355354,289.994172,373.674458,288.760000,377.270000Z" transform="matrix(1 0 0 1 -82.88000000000000 -1.75000000000000)" fill="rgb(96,97,97)" stroke="none" stroke-width="1"/><path id="e13pk2jyug8ee80" d="M314.430000,334C312.819033,334.765390,311.040184,335.109461,309.260000,335C307.289639,335.113115,305.312942,334.968560,303.380000,334.570000C302.728310,334.441247,302.117539,334.156449,301.600000,333.740000C301.168143,333.344339,300.827005,332.859923,300.600000,332.320000C298.970000,328.720000,297.130000,321.260000,299.660000,318.230000C302.550000,314.750000,314.020000,314.140000,317.660000,317.790000C321.190000,321.210000,318.630000,331.530000,314.430000,334Z" transform="matrix(1 0 0 1 -82.88000000000000 -1.75000000000000)" fill="rgb(23,79,252)" stroke="none" stroke-width="1"/><path id="e13pk2jyug8ee81" d="M314.430000,334C312.819033,334.765390,311.040184,335.109461,309.260000,335C307.289639,335.113115,305.312942,334.968560,303.380000,334.570000C302.728310,334.441247,302.117539,334.156449,301.600000,333.740000C301.168143,333.344339,300.827005,332.859923,300.600000,332.320000C298.970000,328.720000,297.130000,321.260000,299.660000,318.230000C302.550000,314.750000,314.020000,314.140000,317.660000,317.790000C321.190000,321.210000,318.630000,331.530000,314.430000,334Z" transform="matrix(1 0 0 1 -82.88000000000000 -1.75000000000000)" fill="url(#e13pk2jyug8ee81-fill)" stroke="none" stroke-width="1"/><rect id="e13pk2jyug8ee82" width="5.220000" height="33.680000" rx="0" ry="0" transform="matrix(-1 0 -0 -1 228.80999999999989 366.08000000000010)" fill="rgb(255,255,255)" stroke="none" stroke-width="1"/><path id="e13pk2jyug8ee83" d="M329.720000,370.630000C330.880000,371.580000,332.010000,372.770000,333.500000,372.950000C334.580000,373.070000,335.660000,372.610000,336.760000,372.610000C338.207878,372.711876,339.572419,373.325034,340.610000,374.340000C341.590005,375.115752,342.325977,376.157221,342.730000,377.340000C343.540000,380.100000,341.080000,383.120000,338.210000,383.400000C335.340000,383.680000,332.580000,381.720000,331.320000,379.140000C331.048517,378.433070,330.692604,377.761536,330.260000,377.140000C329.845000,376.694004,329.362438,376.316053,328.830000,376.020000C324.583264,373.386161,319.899424,371.533622,315,370.550000C314.150000,370.380000,313.110000,370.300000,312.570000,370.970000C312.308439,371.353572,312.165822,371.805772,312.160000,372.270000C311.938589,374.261920,311.848394,376.266244,311.890000,378.270000C311.863632,378.655116,311.935910,379.040595,312.100000,379.390000C312.359569,379.750002,312.677242,380.064296,313.040000,380.320000C314.227138,381.582347,314.438969,383.476605,313.560000,384.970000C312.655345,386.403566,311.268901,387.467334,309.650000,387.970000C307.730000,388.680000,305.310000,388.800000,303.880000,387.330000C302.850430,386.171187,302.560423,384.531680,303.130000,383.090000C303.706203,381.678417,304.771059,380.521273,306.130000,379.830000C306.602417,379.651010,307.012456,379.338268,307.310000,378.930000C307.475395,378.553052,307.537520,378.138885,307.490000,377.730000L307.350000,373.270000C307.435996,372.579635,307.182630,371.890329,306.670000,371.420000C306.270426,371.212083,305.812365,371.145136,305.370000,371.230000C298.020106,371.797144,290.981459,374.435770,285.070000,378.840000C286.150000,379.680000,285.960000,381.500000,284.990000,382.460000C283.921612,383.340792,282.549012,383.764788,281.170000,383.640000C279.654259,383.655578,278.168058,383.220507,276.900000,382.390000C275.609142,381.546504,274.851192,380.091239,274.900000,378.550000C275.107424,376.988100,276.121825,375.650762,277.570000,375.030000C279.000581,374.431016,280.574426,374.260777,282.100000,374.540000C282.885018,374.706973,283.688461,374.770845,284.490000,374.730000C285.389057,374.543204,286.244300,374.186852,287.010000,373.680000C293.935994,369.769272,301.617288,367.382718,309.540000,366.680000C316.180000,366.090000,324.350000,366.230000,329.720000,370.630000Z" transform="matrix(1 0 0 1 -82.88000000000000 -1.75000000000000)" fill="rgb(255,255,255)" stroke="none" stroke-width="1"/><rect id="e13pk2jyug8ee84" width="97.970000" height="35.940000" rx="10.670000" ry="16.673000" transform="matrix(-1 0 -0 -1 150.48999999999995 239.47999999999999)" fill="rgb(255,255,255)" stroke="none" stroke-width="1"/><g id="e13pk2jyug8ee85_to" transform="translate(-82.880000,-1.750000)"><path id="e13pk2jyug8ee85" d="M152.620000,82.750000L177.550000,69.910000L177.550000,73.630000L156.550000,84.100000L156.550000,84.220000L177.550000,94.740000L177.550000,98.460000L152.620000,85.620000Z" transform="translate(0,0)" fill="rgb(23,79,252)" stroke="none" stroke-width="1"/></g><g id="e13pk2jyug8ee86_to" transform="translate(-82.880000,-1.750000)"><path id="e13pk2jyug8ee86" d="M181,100.660000L196,61.660000L199.650000,61.660000L184.650000,100.660000Z" transform="translate(0,0)" fill="rgb(23,79,252)" stroke="none" stroke-width="1"/></g><g id="e13pk2jyug8ee87_to" transform="translate(-82.880000,-1.750000)"><path id="e13pk2jyug8ee87" d="M228,85.810000L203.060000,98.600000L203.060000,94.790000L224.220000,84.270000L224.220000,84.100000L203.060000,73.580000L203.060000,69.910000L228,82.700000Z" transform="translate(0,0)" fill="rgb(23,79,252)" stroke="none" stroke-width="1"/></g><rect id="e13pk2jyug8ee88" width="83.470000" height="25.890000" rx="12.550000" ry="12.550000" transform="matrix(-1 0 -0 -1 266.53190495500007 316.48569912500005)" fill="url(#e13pk2jyug8ee88-fill)" stroke="none" stroke-width="1"/><rect id="e13pk2jyug8ee89" width="83.470000" height="25.890000" rx="12.550000" ry="12.550000" transform="matrix(-0.99999756422088 -0.00220715933224 0.00220715933224 -0.99999756422087 267.22632666842736 316.66986765764653)" fill="url(#e13pk2jyug8ee89-fill)" stroke="none" stroke-width="1"/><g id="e13pk2jyug8ee90_to" transform="translate(0,0)"><g id="e13pk2jyug8ee90" transform="translate(0,0)" opacity="0.52"><rect id="e13pk2jyug8ee91" width="85.210000" height="63.190000" rx="11.020000" ry="11.020000" transform="matrix(-1 0 -0 -1 384.02499999999992 235.53999999500013)" fill="rgb(255,255,255)" stroke="none" stroke-width="1"/><rect id="e13pk2jyug8ee92" width="22.800000" height="1.670000" rx="0" ry="0" transform="matrix(1 0 0 1 308.77999999999997 187.41000000000000)" fill="rgb(23,79,252)" stroke="none" stroke-width="1"/><rect id="e13pk2jyug8ee93" width="13.920000" height="1.570000" rx="0" ry="0" transform="matrix(1 0 0 1 308.77999999999997 190.63999999999999)" fill="rgb(23,79,252)" stroke="none" stroke-width="1"/><rect id="e13pk2jyug8ee94" width="43.790000" height="1.580000" rx="0" ry="0" transform="matrix(1 0 0 1 328.31000000000000 190.63999999999999)" fill="rgb(23,79,252)" stroke="none" stroke-width="1"/><rect id="e13pk2jyug8ee95" width="19.140000" height="1.660000" rx="0" ry="0" transform="matrix(1 0 0 1 316.01999999999998 193.88999999999999)" fill="rgb(23,79,252)" stroke="none" stroke-width="1"/><rect id="e13pk2jyug8ee96" width="22.800000" height="1.670000" rx="0" ry="0" transform="matrix(1 0 0 1 322.16000000000003 197.12000000000000)" fill="rgb(23,79,252)" stroke="none" stroke-width="1"/><rect id="e13pk2jyug8ee97" width="19.110000" height="1.860000" rx="0" ry="0" transform="matrix(1 0 0 1 346.44000000000000 197.12000000000000)" fill="rgb(23,79,252)" stroke="none" stroke-width="1"/><rect id="e13pk2jyug8ee98" width="17.610000" height="1.570000" rx="0" ry="0" transform="matrix(1 0 0 1 322.12000000000000 200.36000000000001)" fill="rgb(23,79,252)" stroke="none" stroke-width="1"/><rect id="e13pk2jyug8ee99" width="36.330000" height="1.740000" rx="0" ry="0" transform="matrix(1 0 0 1 341.42000000000002 200.36000000000001)" fill="rgb(23,79,252)" stroke="none" stroke-width="1"/><rect id="e13pk2jyug8ee100" width="22.800000" height="1.670000" rx="0" ry="0" transform="matrix(1 0 0 1 308.77999999999997 204.74000000000001)" fill="rgb(23,79,252)" stroke="none" stroke-width="1"/><rect id="e13pk2jyug8ee101" width="13.920000" height="1.570000" rx="0" ry="0" transform="matrix(1 0 0 1 308.77999999999997 207.97000000000000)" fill="rgb(23,79,252)" stroke="none" stroke-width="1"/><rect id="e13pk2jyug8ee102" width="43.790000" height="1.580000" rx="0" ry="0" transform="matrix(1 0 0 1 328.31000000000000 207.97000000000000)" fill="rgb(23,79,252)" stroke="none" stroke-width="1"/><rect id="e13pk2jyug8ee103" width="19.140000" height="1.660000" rx="0" ry="0" transform="matrix(1 0 0 1 316.01999999999998 211.21000000000001)" fill="rgb(23,79,252)" stroke="none" stroke-width="1"/><rect id="e13pk2jyug8ee104" width="22.800000" height="1.670000" rx="0" ry="0" transform="matrix(1 0 0 1 322.16000000000003 214.44999999999999)" fill="rgb(23,79,252)" stroke="none" stroke-width="1"/><rect id="e13pk2jyug8ee105" width="19.110000" height="1.860000" rx="0" ry="0" transform="matrix(1 0 0 1 346.44000000000000 214.44999999999999)" fill="rgb(23,79,252)" stroke="none" stroke-width="1"/><rect id="e13pk2jyug8ee106" width="17.610000" height="1.570000" rx="0" ry="0" transform="matrix(1 0 0 1 322.12000000000000 217.69000000000000)" fill="rgb(23,79,252)" stroke="none" stroke-width="1"/><rect id="e13pk2jyug8ee107" width="36.330000" height="1.740000" rx="0" ry="0" transform="matrix(1 0 0 1 341.42000000000002 217.69000000000000)" fill="rgb(23,79,252)" stroke="none" stroke-width="1"/></g></g><g id="e13pk2jyug8ee108" opacity="0.52"><rect id="e13pk2jyug8ee109" width="0" height="1.670000" rx="0" ry="0" transform="matrix(1 0 0 1 67.64000000000000 211.46000000000001)" fill="rgb(23,79,252)" stroke="none" stroke-width="1"/><rect id="e13pk2jyug8ee110" width="0" height="1.570000" rx="0" ry="0" transform="matrix(1 0 0 1 67.64000000000000 214.69999999999999)" fill="rgb(23,79,252)" stroke="none" stroke-width="1"/><rect id="e13pk2jyug8ee111" width="0" height="1.580000" rx="0" ry="0" transform="matrix(1 0 0 1 87.17000000000000 214.69999999999999)" fill="rgb(23,79,252)" stroke="none" stroke-width="1"/><rect id="e13pk2jyug8ee112" width="0" height="1.660000" rx="0" ry="0" transform="matrix(1 0 0 1 74.88000000000000 217.94000000000000)" fill="rgb(23,79,252)" stroke="none" stroke-width="1"/><rect id="e13pk2jyug8ee113" width="0" height="1.670000" rx="0" ry="0" transform="matrix(1 0 0 1 81.02000000000000 221.18000000000001)" fill="rgb(23,79,252)" stroke="none" stroke-width="1"/><rect id="e13pk2jyug8ee114" width="0" height="1.860000" rx="0" ry="0" transform="matrix(1 0 0 1 105.31000000000000 221.18000000000001)" fill="rgb(23,79,252)" stroke="none" stroke-width="1"/><rect id="e13pk2jyug8ee115" width="0" height="1.570000" rx="0" ry="0" transform="matrix(1 0 0 1 80.98999999999999 224.41000000000000)" fill="rgb(23,79,252)" stroke="none" stroke-width="1"/><rect id="e13pk2jyug8ee116" width="0" height="1.740000" rx="0" ry="0" transform="matrix(1 0 0 1 100.28000000000000 224.41000000000000)" fill="rgb(23,79,252)" stroke="none" stroke-width="1"/><rect id="e13pk2jyug8ee117" width="0" height="1.670000" rx="0" ry="0" transform="matrix(1 0 0 1 67.64000000000000 228.78999999999999)" fill="rgb(23,79,252)" stroke="none" stroke-width="1"/><rect id="e13pk2jyug8ee118" width="0" height="1.570000" rx="0" ry="0" transform="matrix(1 0 0 1 67.64000000000000 232.03000000000000)" fill="rgb(23,79,252)" stroke="none" stroke-width="1"/><rect id="e13pk2jyug8ee119" width="0" height="1.580000" rx="0" ry="0" transform="matrix(1 0 0 1 87.17000000000000 232.03000000000000)" fill="rgb(23,79,252)" stroke="none" stroke-width="1"/></g><path id="e13pk2jyug8ee120" d="M195.300000,328.850000C191.990000,322.310000,187.940000,315.520000,188.720000,308.230000C189.190000,303.820000,191.420000,299.820000,193.600000,295.950000L203.420000,278.540000C206.420000,282.440000,211.360000,284.810000,213.340000,289.310000C216.520000,296.540000,210.340000,304.540000,210.670000,312.430000C210.890000,318.500000,214.920000,324.030000,214.670000,330.100000C214.510000,334.510000,207.530000,348.960000,201.880000,348.410000C198.890000,348.120000,197.180000,332.550000,195.300000,328.850000Z" transform="matrix(1 0 0 1 -82.88000000000000 -1.75000000000000)" fill="rgb(23,79,252)" stroke="none" stroke-width="1"/><path id="e13pk2jyug8ee121" d="M195.300000,328.850000C191.990000,322.310000,187.940000,315.520000,188.720000,308.230000C189.190000,303.820000,191.420000,299.820000,193.600000,295.950000L203.420000,278.540000C206.420000,282.440000,211.360000,284.810000,213.340000,289.310000C216.520000,296.540000,210.340000,304.540000,210.670000,312.430000C210.890000,318.500000,214.920000,324.030000,214.670000,330.100000C214.510000,334.510000,207.530000,348.960000,201.880000,348.410000C198.890000,348.120000,197.180000,332.550000,195.300000,328.850000Z" transform="matrix(1 0 0 1 -82.88000000000000 -1.75000000000000)" fill="url(#e13pk2jyug8ee121-fill)" stroke="none" stroke-width="1"/><path id="e13pk2jyug8ee122" d="M229.110000,326.060000C231.340000,326.060000,234.110000,326.510000,234.750000,328.660000C235.270000,330.540000,233.620000,332.270000,232.050000,333.430000C226.580000,337.430000,219.730000,340.500000,217.050000,346.730000C212.600000,357.070000,200,350.440000,206.520000,341.490000C209.220000,337.790000,211.520000,332.820000,214.880000,329.730000C218.740000,326.160000,224.140000,326,229.110000,326.060000Z" transform="matrix(1 0 0 1 -82.88000000000000 -1.75000000000000)" fill="rgb(23,79,252)" stroke="none" stroke-width="1"/><path id="e13pk2jyug8ee123" d="M229.110000,326.060000C231.340000,326.060000,234.110000,326.510000,234.750000,328.660000C235.270000,330.540000,233.620000,332.270000,232.050000,333.430000C226.580000,337.430000,219.730000,340.500000,217.050000,346.730000C212.600000,357.070000,200,350.440000,206.520000,341.490000C209.220000,337.790000,211.520000,332.820000,214.880000,329.730000C218.740000,326.160000,224.140000,326,229.110000,326.060000Z" transform="matrix(1 0 0 1 -82.88000000000000 -1.75000000000000)" fill="url(#e13pk2jyug8ee123-fill)" stroke="none" stroke-width="1"/><path id="e13pk2jyug8ee124" d="M196.440000,330.840000C193.930000,327.980000,190.200000,326.570000,186.640000,325.250000C184.950000,324.630000,182.780000,324.120000,181.640000,325.480000C180.869732,326.567415,180.869732,328.022585,181.640000,329.110000C182.424218,330.149238,183.381540,331.045670,184.470000,331.760000C186.660144,333.364567,188.455640,335.447343,189.720000,337.850000C190.990000,340.440000,191.330000,343.390000,192.460000,346.050000C193.590000,348.710000,195.950000,351.220000,198.830000,351.100000C201.137594,350.867929,203.078799,349.269986,203.750000,347.050000C204.870000,343.600000,203.380000,342.050000,201.530000,339.610000C199.480000,336.900000,198.730000,333.430000,196.440000,330.840000Z" transform="matrix(1 0 0 1 -82.88000000000000 -1.75000000000000)" fill="rgb(23,79,252)" stroke="none" stroke-width="1"/><path id="e13pk2jyug8ee125" d="M196.440000,330.840000C193.930000,327.980000,190.200000,326.570000,186.640000,325.250000C184.950000,324.630000,182.780000,324.120000,181.640000,325.480000C180.869732,326.567415,180.869732,328.022585,181.640000,329.110000C182.424218,330.149238,183.381540,331.045670,184.470000,331.760000C186.660144,333.364567,188.455640,335.447343,189.720000,337.850000C190.990000,340.440000,191.330000,343.390000,192.460000,346.050000C193.590000,348.710000,195.950000,351.220000,198.830000,351.100000C201.137594,350.867929,203.078799,349.269986,203.750000,347.050000C204.870000,343.600000,203.380000,342.050000,201.530000,339.610000C199.480000,336.900000,198.730000,333.430000,196.440000,330.840000Z" transform="matrix(1 0 0 1 -82.88000000000000 -0.75000000000000)" fill="url(#e13pk2jyug8ee125-fill)" stroke="none" stroke-width="1"/><path id="e13pk2jyug8ee126" d="M218.150000,346.820000L214.780000,378.350000L211.210000,378.350000C208.460000,376.790000,205.680000,375.260000,202.900000,373.700000L194.800000,369.160000L191.930000,346.820000Z" transform="matrix(1 0 0 1 -82.88000000000000 -1.75000000000000)" fill="rgb(23,79,252)" stroke="none" stroke-width="1"/><path id="e13pk2jyug8ee127" d="M218.150000,346.820000L214.780000,378.350000L211.210000,378.350000C208.460000,376.790000,205.680000,375.260000,202.900000,373.700000L194.800000,369.160000L191.930000,346.820000Z" transform="matrix(1 0 0 1 -82.88000000000000 -1.75000000000000)" fill="url(#e13pk2jyug8ee127-fill)" stroke="none" stroke-width="1"/></svg>