<svg xmlns="http://www.w3.org/2000/svg" xmlns:xlink="http://www.w3.org/1999/xlink" width="640" height="640">
  <defs>
    <path d="M160.42 576.84l12.56 11.39A898605.3 898605.3 0 0 0 21.91 640c30.53-83.82 47.52-130.39 50.91-139.68-104.44-133.96-80.49-327.2 53.47-431.64 133.95-104.44 327.23-80.49 431.64 53.46a307.66 307.66 0 0 1 65 189.03c.16 169.91-137.62 307.62-307.53 307.59a307.52 307.52 0 0 1-154.98-41.92z" id="a"/>
    <path d="M160.42 576.84l12.56 11.39A898605.3 898605.3 0 0 0 21.91 640c30.53-83.82 47.52-130.39 50.91-139.68-104.44-133.96-80.49-327.2 53.47-431.64 133.95-104.44 327.23-80.49 431.64 53.46a307.66 307.66 0 0 1 65 189.03c.16 169.91-137.62 307.62-307.53 307.59a307.52 307.52 0 0 1-154.98-41.92z" id="b"/>
    <path d="M107.85 609.71c6.52-2.15 58.79-19.27 65.32-21.39 32.56 18.19 81.47 32.13 151.04 28.99 131.15-5.84 190.22-72.3 190.22-72.3s-13.88-94.13-91.48-115.52c-77.6-21.39-161.1-14.71-161.1-14.71-25.49 14.46-84.56 1.72-127.53 72.3 0 0-29.43 101.15-26.47 122.63z" id="c"/>
    <path d="M107.85 609.71c6.52-2.15 58.79-19.27 65.32-21.39 32.56 18.19 81.47 32.13 151.04 28.99 131.15-5.84 190.22-72.3 190.22-72.3s-13.88-94.13-91.48-115.52c-77.6-21.39-161.1-14.71-161.1-14.71-25.49 14.46-84.56 1.72-127.53 72.3 0 0-29.43 101.15-26.47 122.63z" id="d"/>
    <path d="M403.96 145.72s-18.01-41.68-90.1-34.9c-72.11 6.74-144.79 67.53-111.95 166.27C219 328.28 188.68 402.8 188.68 402.8c7.08-.03 42.42-.15 106.04-.4l163.72-5.2a148.25 148.25 0 0 1-12.74-94.96c10.65-54.33 20.22-138.2-17.21-155.38-2.46-.12-22.07-1.01-24.53-1.14z" id="e"/>
    <path d="M403.96 145.72s-18.01-41.68-90.1-34.9c-72.11 6.74-144.79 67.53-111.95 166.27C219 328.28 188.68 402.8 188.68 402.8c7.08-.03 42.42-.15 106.04-.4l163.72-5.2a148.25 148.25 0 0 1-12.74-94.96c10.65-54.33 20.22-138.2-17.21-155.38-2.46-.12-22.07-1.01-24.53-1.14z" id="f"/>
    <path d="M359.85 371.99v41.65s-52.82 39.92-96.13-2.83V303.38s4.9-65.44 18.01-58.48c2.99 1.63 29.43-1.11 33.74-49.04 0 0 60.73-27.02 88.83-8.43s25.3 31.18 25.3 31.18c-6.28 29.7 20.81 131.62-31.49 148.49a48.33 48.33 0 0 1-38.26 4.89z" id="g"/>
    <path d="M359.85 371.99v41.65s-52.82 39.92-96.13-2.83V303.38s4.9-65.44 18.01-58.48c2.99 1.63 29.43-1.11 33.74-49.04 0 0 60.73-27.02 88.83-8.43s25.3 31.18 25.3 31.18c-6.28 29.7 20.81 131.62-31.49 148.49a48.33 48.33 0 0 1-38.26 4.89z" id="h"/>
    <path d="M316.02 349.09s16.28 64.12 43.83 64.7v-41.64c-21.34-5.63-35.95-13.31-43.83-23.06z" id="i"/>
    <linearGradient id="j" gradientUnits="userSpaceOnUse" x1="326.61" y1="427.24" x2="363.14" y2="279.9">
      <stop offset="0%" stop-opacity="0"/>
      <stop offset="99%"/>
    </linearGradient>
    <path d="M316.02 349.09s16.28 64.12 43.83 64.7v-41.64c-21.34-5.63-35.95-13.31-43.83-23.06z" id="k"/>
    <path d="M386.11 180.44c-16.25 0-33.89 2.31-45.31 13.79-14.13 14.19-13.79 36.75-19.98 55.78a70.29 70.29 0 0 1-26.04 36.01 56.86 56.86 0 0 1-43.03 9.45 11.26 11.26 0 0 1-7.79-4.37 12.4 12.4 0 0 1-1.05-7.05c1.45-26.96 4.62-54.88 18.57-78a93.16 93.16 0 0 1 31.27-31.24 61.3 61.3 0 0 1 24.53-9.02c17.18-1.97 33.86 5.7 49.4 13.21" id="l"/>
    <path d="M386.11 180.44c-16.25 0-33.89 2.31-45.31 13.79-14.13 14.19-13.79 36.75-19.98 55.78a70.29 70.29 0 0 1-26.04 36.01 56.86 56.86 0 0 1-43.03 9.45 11.26 11.26 0 0 1-7.79-4.37 12.4 12.4 0 0 1-1.05-7.05c1.45-26.96 4.62-54.88 18.57-78a93.16 93.16 0 0 1 31.27-31.24 61.3 61.3 0 0 1 24.53-9.02c17.18-1.97 33.86 5.7 49.4 13.21" id="m"/>
    <path d="M243.62 426.6s2.8 53.12 23.33 43.55l37.99-38.51c-8.74-4.21-34.91-16.86-43.62-21.08 0 0-18.28 2.8-17.7 16.04z" id="n"/>
    <path d="M243.62 426.6s2.8 53.12 23.33 43.55l37.99-38.51c-8.74-4.21-34.91-16.86-43.62-21.08 0 0-18.28 2.8-17.7 16.04z" id="o"/>
    <path d="M374.1 426.6s-2.86 53.12-23.36 43.55l-37.95-38.51 43.55-21.08c12.19 1.87 18.11 7.21 17.76 16.04z" id="p"/>
    <path d="M374.1 426.6s-2.86 53.12-23.36 43.55l-37.95-38.51 43.55-21.08c12.19 1.87 18.11 7.21 17.76 16.04z" id="q"/>
    <path d="M297.67 484.28a10.16 10.16 0 1 0 20.31.01 10.16 10.16 0 0 0-20.31-.01z" id="r"/>
    <path d="M297.67 484.28a10.16 10.16 0 1 0 20.31.01 10.16 10.16 0 0 0-20.31-.01z" id="s"/>
    <path d="M297.67 520.17a10.16 10.16 0 1 0 20.31.01 10.16 10.16 0 0 0-20.31-.01z" id="t"/>
    <path d="M297.67 520.17a10.16 10.16 0 1 0 20.31.01 10.16 10.16 0 0 0-20.31-.01z" id="u"/>
    <path d="M297.67 556.09a10.16 10.16 0 1 0 20.31.01 10.16 10.16 0 0 0-20.31-.01z" id="v"/>
    <path d="M297.67 556.09a10.16 10.16 0 1 0 20.31.01 10.16 10.16 0 0 0-20.31-.01z" id="w"/>
  </defs>
  <use xlink:href="#a" fill="#cad4f2"/>
  <use xlink:href="#a" fill-opacity="0" stroke="#000" stroke-opacity="0"/>
  <use xlink:href="#b" fill-opacity="0"/>
  <use xlink:href="#b" fill-opacity="0" stroke="#000" stroke-opacity="0"/>
  <use xlink:href="#c" fill="#174ffc"/>
  <use xlink:href="#c" fill-opacity="0" stroke="#000" stroke-opacity="0"/>
  <use xlink:href="#d" fill-opacity="0"/>
  <use xlink:href="#d" fill-opacity="0" stroke="#000" stroke-opacity="0"/>
  <use xlink:href="#e" fill="#404040"/>
  <use xlink:href="#e" fill-opacity="0" stroke="#000" stroke-opacity="0"/>
  <use xlink:href="#f" fill-opacity="0"/>
  <use xlink:href="#f" fill-opacity="0" stroke="#000" stroke-opacity="0"/>
  <use xlink:href="#g" fill="#f7af87"/>
  <use xlink:href="#g" fill-opacity="0" stroke="#000" stroke-opacity="0"/>
  <use xlink:href="#h" fill-opacity="0"/>
  <use xlink:href="#h" fill-opacity="0" stroke="#000" stroke-opacity="0"/>
  <use xlink:href="#i" fill="url(#j)"/>
  <use xlink:href="#i" fill-opacity="0" stroke="#000" stroke-opacity="0"/>
  <use xlink:href="#k" fill-opacity="0"/>
  <use xlink:href="#k" fill-opacity="0" stroke="#000" stroke-opacity="0"/>
  <use xlink:href="#l" fill="#404040"/>
  <use xlink:href="#l" fill-opacity="0" stroke="#000" stroke-opacity="0"/>
  <g>
    <use xlink:href="#m" fill-opacity="0"/>
    <use xlink:href="#m" fill-opacity="0" stroke="#000" stroke-opacity="0"/>
  </g>
  <g>
    <use xlink:href="#n" fill="#fff"/>
    <use xlink:href="#n" fill-opacity="0" stroke="#000" stroke-opacity="0"/>
  </g>
  <g>
    <use xlink:href="#o" fill-opacity="0"/>
    <use xlink:href="#o" fill-opacity="0" stroke="#000" stroke-opacity="0"/>
  </g>
  <g>
    <use xlink:href="#p" fill="#fff"/>
    <use xlink:href="#p" fill-opacity="0" stroke="#000" stroke-opacity="0"/>
  </g>
  <g>
    <use xlink:href="#q" fill-opacity="0"/>
    <use xlink:href="#q" fill-opacity="0" stroke="#000" stroke-opacity="0"/>
  </g>
  <g>
    <use xlink:href="#r" fill="#fff"/>
    <use xlink:href="#r" fill-opacity="0" stroke="#000" stroke-opacity="0"/>
  </g>
  <g>
    <use xlink:href="#s" fill-opacity="0"/>
    <use xlink:href="#s" fill-opacity="0" stroke="#000" stroke-opacity="0"/>
  </g>
  <g>
    <use xlink:href="#t" fill="#fff"/>
    <use xlink:href="#t" fill-opacity="0" stroke="#000" stroke-opacity="0"/>
  </g>
  <g>
    <use xlink:href="#u" fill-opacity="0"/>
    <use xlink:href="#u" fill-opacity="0" stroke="#000" stroke-opacity="0"/>
  </g>
  <g>
    <use xlink:href="#v" fill="#fff"/>
    <use xlink:href="#v" fill-opacity="0" stroke="#000" stroke-opacity="0"/>
  </g>
  <g>
    <use xlink:href="#w" fill-opacity="0"/>
    <use xlink:href="#w" fill-opacity="0" stroke="#000" stroke-opacity="0"/>
  </g>
</svg>
