<svg xmlns="http://www.w3.org/2000/svg" xmlns:xlink="http://www.w3.org/1999/xlink" width="640" height="640">
  <defs>
    <path d="M166.56 572.88c.85.73 5 4.5 12.45 11.3L28.95 635.7c30.5-83.37 47.44-129.67 50.86-138.93C-24.07 363.54-.25 171.36 132.98 67.48c133.2-103.85 325.41-80.03 429.26 53.17a306.2 306.2 0 0 1 64.66 188.02c-.19 168.93-137.16 305.9-306.12 305.9a305.95 305.95 0 0 1-154.22-41.69z" id="a"/>
    <path d="M166.56 572.88c.85.73 5 4.5 12.45 11.3L28.95 635.7c30.5-83.37 47.44-129.67 50.86-138.93C-24.07 363.54-.25 171.36 132.98 67.48c133.2-103.85 325.41-80.03 429.26 53.17a306.2 306.2 0 0 1 64.66 188.02c-.19 168.93-137.16 305.9-306.12 305.9a305.95 305.95 0 0 1-154.22-41.69z" id="b"/>
    <path d="M425.82 493.35c.57-7.3 1.49-15.52 7.14-20.24a24.41 24.41 0 0 1 11.68-4.65c8.61-1.62 19.9-3.65 28.55-1.69 7.33 1.69 7.07 8.07 7.33 14.41 1.12 20.7-2.15 102.54 2.39 122.71-22.29 1.61-42.88.84-65.28 1.03 1.31-17.29 6.92-94.28 8.19-111.57z" id="c"/>
    <linearGradient id="d" gradientUnits="userSpaceOnUse" x1="417.63" y1="535.46" x2="482.91" y2="535.46">
      <stop offset="0%" stop-color="#e5c6d6"/>
      <stop offset="42%" stop-color="#ead4d0"/>
      <stop offset="100%" stop-color="#f0e9cb"/>
    </linearGradient>
    <path d="M425.82 493.35c.57-7.3 1.49-15.52 7.14-20.24a24.41 24.41 0 0 1 11.68-4.65c8.61-1.62 19.9-3.65 28.55-1.69 7.33 1.69 7.07 8.07 7.33 14.41 1.12 20.7-2.15 102.54 2.39 122.71-22.29 1.61-42.88.84-65.28 1.03 1.31-17.29 6.92-94.28 8.19-111.57z" id="e"/>
    <path d="M210.51 605.15s-.88-97.73-19.28-111.91a85.05 85.05 0 0 0-36.27-16.6c-.31 16.75-1 58.63-2.15 125.59 34.61 1.77 53.86 2.73 57.7 2.92z" id="f"/>
    <linearGradient id="g" gradientUnits="userSpaceOnUse" x1="152.81" y1="540.96" x2="210.51" y2="540.96">
      <stop offset="0%" stop-color="#e5c6d6"/>
      <stop offset="42%" stop-color="#ead4d0"/>
      <stop offset="100%" stop-color="#f0e9cb"/>
    </linearGradient>
    <path d="M210.51 605.15s-.88-97.73-19.28-111.91a85.05 85.05 0 0 0-36.27-16.6c-.31 16.75-1 58.63-2.15 125.59 34.61 1.77 53.86 2.73 57.7 2.92z" id="h"/>
    <path d="M215.7 351.16c-2 21.37-5.07 42.88-2.5 64.09 2.62 21.24 11.8 42.87 29.28 54.86 12.49 8.53 27.89 11.6 42.95 13.22a434.85 434.85 0 0 0 46.34 1.96c16.59.57 33.19-1.04 49.36-4.77 15.99-4.3 31.39-12.95 40.88-26.51 8.8-12.52 11.91-28.12 14.26-43.26a696.91 696.91 0 0 0 .38-215.18 105.1 105.1 0 0 0-6.88-27.13c-5.34-12.06-14.64-21.93-23.7-31.5-9.11-9.53-19.4-20.25-32.01-25.59a90.35 90.35 0 0 0-31.81-6.07c-47.67-2.57-98.66 1.58-116.48 53.56-8.03 23.2-7.34 48.29-6.96 72.8 1.19 39.88.16 79.8-3.11 119.52z" id="i"/>
    <path d="M215.7 351.16c-2 21.37-5.07 42.88-2.5 64.09 2.62 21.24 11.8 42.87 29.28 54.86 12.49 8.53 27.89 11.6 42.95 13.22a434.85 434.85 0 0 0 46.34 1.96c16.59.57 33.19-1.04 49.36-4.77 15.99-4.3 31.39-12.95 40.88-26.51 8.8-12.52 11.91-28.12 14.26-43.26a696.91 696.91 0 0 0 .38-215.18 105.1 105.1 0 0 0-6.88-27.13c-5.34-12.06-14.64-21.93-23.7-31.5-9.11-9.53-19.4-20.25-32.01-25.59a90.35 90.35 0 0 0-31.81-6.07c-47.67-2.57-98.66 1.58-116.48 53.56-8.03 23.2-7.34 48.29-6.96 72.8 1.19 39.88.16 79.8-3.11 119.52z" id="j"/>
    <path d="M408.91 312.28c.15-3.3 1.58-29.77 1.73-33.07a176.1 176.1 0 0 0-1.23-43.34c-2.8-14.22-9.53-28.16-21.21-36.77-14.94-10.95-34.96-11.6-53.59-11.49-17.18 0-35.62.81-49.37 10.99a82.55 82.55 0 0 0-18.29 21.67 91.16 91.16 0 0 0-13.68 26.86 84.98 84.98 0 0 0-1.99 20.4c-.54 35.03 1.23 70.73-8.3 104.46-3.15 10.95-7.3 21.94-8.68 33.46-.39 2-.04 4.04 1.03 5.76a8.28 8.28 0 0 0 4.42 2.19c13.26 3 26.7 5.27 40.23 6.73 7.22.92 64.96 8.33 72.19 9.29a79.6 79.6 0 0 0 24.16.66c5.53-.96 10.95-3.11 16.33-4.11 18.29-3.31 28.05-13.07 25.32-31.89a418.11 418.11 0 0 1-2.92-65.43c-1 2.08-4.42 9.34-4.92 10.37a90.52 90.52 0 0 1-1.23-26.74z" id="k"/>
    <linearGradient id="l" gradientUnits="userSpaceOnUse" x1="330.65" y1="70.24" x2="321.74" y2="771.51">
      <stop offset="0%" stop-color="#010101" stop-opacity="0"/>
      <stop offset="95%" stop-color="#010101"/>
    </linearGradient>
    <path d="M408.91 312.28c.15-3.3 1.58-29.77 1.73-33.07a176.1 176.1 0 0 0-1.23-43.34c-2.8-14.22-9.53-28.16-21.21-36.77-14.94-10.95-34.96-11.6-53.59-11.49-17.18 0-35.62.81-49.37 10.99a82.55 82.55 0 0 0-18.29 21.67 91.16 91.16 0 0 0-13.68 26.86 84.98 84.98 0 0 0-1.99 20.4c-.54 35.03 1.23 70.73-8.3 104.46-3.15 10.95-7.3 21.94-8.68 33.46-.39 2-.04 4.04 1.03 5.76a8.28 8.28 0 0 0 4.42 2.19c13.26 3 26.7 5.27 40.23 6.73 7.22.92 64.96 8.33 72.19 9.29a79.6 79.6 0 0 0 24.16.66c5.53-.96 10.95-3.11 16.33-4.11 18.29-3.31 28.05-13.07 25.32-31.89a418.11 418.11 0 0 1-2.92-65.43c-1 2.08-4.42 9.34-4.92 10.37a90.52 90.52 0 0 1-1.23-26.74z" id="m"/>
    <path d="M201.6 538.84c.23 3.5.35 68.31 3.11 70.31a10 10 0 0 0 5.65 1.38c108.92 4.61 196.05-.3 217.84-.34.46-14.95.84-90.9 1.27-105.96-.12-2.19.3-4.38 1.19-6.38a12.87 12.87 0 0 1 5.84-4.69 321.69 321.69 0 0 1 48.33-20.36 214.61 214.61 0 0 0-27.17-50.87c-10.45-14.52-65.5-45.72-156.48-44.6-20.59.23-38.88 8.18-58.74 13.56-42.3 11.83-76.38 43.87-91.4 86.02 23.09 14.95 48.68 34 50.56 61.93z" id="n"/>
    <path d="M201.6 538.84c.23 3.5.35 68.31 3.11 70.31a10 10 0 0 0 5.65 1.38c108.92 4.61 196.05-.3 217.84-.34.46-14.95.84-90.9 1.27-105.96-.12-2.19.3-4.38 1.19-6.38a12.87 12.87 0 0 1 5.84-4.69 321.69 321.69 0 0 1 48.33-20.36 214.61 214.61 0 0 0-27.17-50.87c-10.45-14.52-65.5-45.72-156.48-44.6-20.59.23-38.88 8.18-58.74 13.56-42.3 11.83-76.38 43.87-91.4 86.02 23.09 14.95 48.68 34 50.56 61.93z" id="o"/>
    <path d="M315.36 444.02c18.63-.03 36.19-11.41 46.26-27.08a40.7 40.7 0 0 0 7.33-29.55c-1.49-7.3-5.72-13.6-7.33-20.7-3.65-14.87 3.69-31.35-2-45.57-4.57-11.56-16.64-18.48-28.66-21.94a40.59 40.59 0 0 0-21.94-.69c-13.33 4.07-15.41 13.72-14.6 25.59.58 14.14-4.03 27.08-9.72 39.76-7.03 15.68-14.94 32.58-10.95 49.33 4.27 18.29 22.98 30.89 41.61 30.85z" id="p"/>
    <linearGradient id="q" gradientUnits="userSpaceOnUse" x1="272.68" y1="370.72" x2="369.42" y2="370.72">
      <stop offset="0%" stop-color="#e5c6d6"/>
      <stop offset="42%" stop-color="#ead4d0"/>
      <stop offset="100%" stop-color="#f0e9cb"/>
    </linearGradient>
    <path d="M315.36 444.02c18.63-.03 36.19-11.41 46.26-27.08a40.7 40.7 0 0 0 7.33-29.55c-1.49-7.3-5.72-13.6-7.33-20.7-3.65-14.87 3.69-31.35-2-45.57-4.57-11.56-16.64-18.48-28.66-21.94a40.59 40.59 0 0 0-21.94-.69c-13.33 4.07-15.41 13.72-14.6 25.59.58 14.14-4.03 27.08-9.72 39.76-7.03 15.68-14.94 32.58-10.95 49.33 4.27 18.29 22.98 30.89 41.61 30.85z" id="r"/>
    <path d="M347.71 371.83a44.38 44.38 0 0 0 14.64-32.88 18.49 18.49 0 0 0-3.69-11.91 18.3 18.3 0 0 0-7.95-4.77 56.48 56.48 0 0 0-48.45 5.8c-12.6 7.88-11.1 22.98-3.38 34.54a38.75 38.75 0 0 0 22.4 15.56c9.29 3 19.51.54 26.43-6.34z" id="s"/>
    <linearGradient id="t" gradientUnits="userSpaceOnUse" x1="321.62" y1="402.53" x2="372.57" y2="-113.36">
      <stop offset="0%" stop-color="#010101" stop-opacity="0"/>
      <stop offset="95%" stop-color="#010101"/>
    </linearGradient>
    <path d="M347.71 371.83a44.38 44.38 0 0 0 14.64-32.88 18.49 18.49 0 0 0-3.69-11.91 18.3 18.3 0 0 0-7.95-4.77 56.48 56.48 0 0 0-48.45 5.8c-12.6 7.88-11.1 22.98-3.38 34.54a38.75 38.75 0 0 0 22.4 15.56c9.29 3 19.51.54 26.43-6.34z" id="u"/>
    <path d="M372.14 336.1a107.51 107.51 0 0 0 16.22-26.66c9.56-20.74 16.9-42.99 17.25-65.81.38-22.82-6.88-46.37-22.86-61.93a82.38 82.38 0 0 0-42.72-20.63c-20.75-3.88-43.11-1.89-61.63 8.87a69.15 69.15 0 0 0-26.82 28.09c-6.03 11.83-4.91 21.13-5.34 33.61-.96 29.51 1.62 56.44 16.37 82.49 10.37 18.25 25.86 34.38 45.57 40.49a62.44 62.44 0 0 0 63.96-18.52z" id="v"/>
    <linearGradient id="w" gradientUnits="userSpaceOnUse" x1="235.91" y1="244.05" x2="396" y2="275.06">
      <stop offset="0%" stop-color="#e5c6d6"/>
      <stop offset="42%" stop-color="#ead4d0"/>
      <stop offset="100%" stop-color="#f0e9cb"/>
    </linearGradient>
    <path d="M372.14 336.1a107.51 107.51 0 0 0 16.22-26.66c9.56-20.74 16.9-42.99 17.25-65.81.38-22.82-6.88-46.37-22.86-61.93a82.38 82.38 0 0 0-42.72-20.63c-20.75-3.88-43.11-1.89-61.63 8.87a69.15 69.15 0 0 0-26.82 28.09c-6.03 11.83-4.91 21.13-5.34 33.61-.96 29.51 1.62 56.44 16.37 82.49 10.37 18.25 25.86 34.38 45.57 40.49a62.44 62.44 0 0 0 63.96-18.52z" id="x"/>
    <path d="M242.82 239.71c12.07.19 24.09-.38 36.08-1.73a99.91 99.91 0 0 0 2.84-22.17 62.57 62.57 0 0 1 4.34 19.67c17.98-1.57 36-2.07 54.06-1.53a41.43 41.43 0 0 1-1.69-20.63 50.3 50.3 0 0 0 5.26 18.63 6.98 6.98 0 0 0 2.42 3.11c2.27.92 4.84.81 7.03-.31a84.54 84.54 0 0 1 39.12-3.38c.07-.84.61-7.76.69-8.6a76.53 76.53 0 0 1 6.45 14.79 22.52 22.52 0 0 1 17.17-3.88l-5.03-29.97a45.91 45.91 0 0 0-21.47-36.92 145.07 145.07 0 0 0-25.02-17.59 84.02 84.02 0 0 0-50.09-7.3 119.65 119.65 0 0 0-47.53 18.9 48.81 48.81 0 0 0-13.83 12.33c-3.65 5.15-3.65 10.76-6.03 16.25-6.15 14.79-11.41 28.2-11.41 44.57a6.26 6.26 0 0 0 .73 3.65 6.82 6.82 0 0 0 5.91 2.11z" id="y"/>
    <path d="M242.82 239.71c12.07.19 24.09-.38 36.08-1.73a99.91 99.91 0 0 0 2.84-22.17 62.57 62.57 0 0 1 4.34 19.67c17.98-1.57 36-2.07 54.06-1.53a41.43 41.43 0 0 1-1.69-20.63 50.3 50.3 0 0 0 5.26 18.63 6.98 6.98 0 0 0 2.42 3.11c2.27.92 4.84.81 7.03-.31a84.54 84.54 0 0 1 39.12-3.38c.07-.84.61-7.76.69-8.6a76.53 76.53 0 0 1 6.45 14.79 22.52 22.52 0 0 1 17.17-3.88l-5.03-29.97a45.91 45.91 0 0 0-21.47-36.92 145.07 145.07 0 0 0-25.02-17.59 84.02 84.02 0 0 0-50.09-7.3 119.65 119.65 0 0 0-47.53 18.9 48.81 48.81 0 0 0-13.83 12.33c-3.65 5.15-3.65 10.76-6.03 16.25-6.15 14.79-11.41 28.2-11.41 44.57a6.26 6.26 0 0 0 .73 3.65 6.82 6.82 0 0 0 5.91 2.11z" id="z"/>
    <path d="M146.58 607.19L500.31 640l-15.48-76.84c-32.08 22.52-70.58 38.19-115.49 47.03-67.35 13.25-92.25 1.99-110.15-3-11.91-3.3-42.18-14.22-90.74-32.77l7.95 10.6-37.11 11.91" id="A"/>
    <path d="M168.02 572.96l10.84 9.26-27.82 10.83v13.37l171.62 12.91 163.82-7.72 3.15-47.18c106.65-59.24 104.35-58.4-6.95 2.57-111.34 61.01-216.23 62.97-314.66 5.96z" id="B"/>
    <path d="M168.02 572.96l10.84 9.26-27.82 10.83v13.37l171.62 12.91 163.82-7.72 3.15-47.18c106.65-59.24 104.35-58.4-6.95 2.57-111.34 61.01-216.23 62.97-314.66 5.96z" id="C"/>
  </defs>
  <use xlink:href="#a" fill="#d8e1ff"/>
  <use xlink:href="#a" fill-opacity="0" stroke="#000" stroke-opacity="0"/>
  <use xlink:href="#b" fill-opacity="0"/>
  <use xlink:href="#b" fill-opacity="0" stroke="#000" stroke-width="0"/>
  <use xlink:href="#c" fill="url(#d)"/>
  <use xlink:href="#c" fill-opacity="0" stroke="#000" stroke-opacity="0"/>
  <use xlink:href="#e" fill-opacity="0"/>
  <use xlink:href="#e" fill-opacity="0" stroke="#000" stroke-opacity="0"/>
  <use xlink:href="#f" fill="url(#g)"/>
  <use xlink:href="#f" fill-opacity="0" stroke="#000" stroke-opacity="0"/>
  <use xlink:href="#h" fill-opacity="0"/>
  <use xlink:href="#h" fill-opacity="0" stroke="#000" stroke-opacity="0"/>
  <use xlink:href="#i" fill="#ffe368"/>
  <use xlink:href="#i" fill-opacity="0" stroke="#000" stroke-opacity="0"/>
  <use xlink:href="#j" fill-opacity="0"/>
  <use xlink:href="#j" fill-opacity="0" stroke="#000" stroke-opacity="0"/>
  <use xlink:href="#k" fill="url(#l)"/>
  <use xlink:href="#k" fill-opacity="0" stroke="#000" stroke-opacity="0"/>
  <use xlink:href="#m" fill-opacity="0"/>
  <use xlink:href="#m" fill-opacity="0" stroke="#000" stroke-opacity="0"/>
  <use xlink:href="#n" fill="#174ffc"/>
  <use xlink:href="#n" fill-opacity="0" stroke="#000" stroke-opacity="0"/>
  <use xlink:href="#o" fill-opacity="0"/>
  <use xlink:href="#o" fill-opacity="0" stroke="#000" stroke-opacity="0"/>
  <g>
    <use xlink:href="#p" fill="url(#q)"/>
    <use xlink:href="#p" fill-opacity="0" stroke="#000" stroke-opacity="0"/>
  </g>
  <g>
    <use xlink:href="#r" fill-opacity="0"/>
    <use xlink:href="#r" fill-opacity="0" stroke="#000" stroke-opacity="0"/>
  </g>
  <g>
    <use xlink:href="#s" fill="url(#t)"/>
    <use xlink:href="#s" fill-opacity="0" stroke="#000" stroke-opacity="0"/>
  </g>
  <g>
    <use xlink:href="#u" fill-opacity="0"/>
    <use xlink:href="#u" fill-opacity="0" stroke="#000" stroke-opacity="0"/>
  </g>
  <g>
    <use xlink:href="#v" fill="url(#w)"/>
    <use xlink:href="#v" fill-opacity="0" stroke="#000" stroke-opacity="0"/>
  </g>
  <g>
    <use xlink:href="#x" fill-opacity="0"/>
    <use xlink:href="#x" fill-opacity="0" stroke="#000" stroke-opacity="0"/>
  </g>
  <g>
    <use xlink:href="#y" fill="#ffe368"/>
    <use xlink:href="#y" fill-opacity="0" stroke="#000" stroke-opacity="0"/>
  </g>
  <g>
    <use xlink:href="#z" fill-opacity="0"/>
    <use xlink:href="#z" fill-opacity="0" stroke="#000" stroke-opacity="0"/>
  </g>
  <g>
    <use xlink:href="#A" fill-opacity="0"/>
    <use xlink:href="#A" fill-opacity="0" stroke="#000" stroke-width="0"/>
  </g>
  <g>
    <use xlink:href="#B" fill="#fff"/>
    <use xlink:href="#B" fill-opacity="0" stroke="#000" stroke-opacity="0"/>
  </g>
  <g>
    <use xlink:href="#C" fill-opacity="0"/>
    <use xlink:href="#C" fill-opacity="0" stroke="#452727" stroke-width="0" stroke-opacity=".72"/>
  </g>
</svg>
