<svg xmlns="http://www.w3.org/2000/svg" xmlns:xlink="http://www.w3.org/1999/xlink" width="640" height="640">
  <defs>
    <path d="M166.74 576.84c.86.77 5.04 4.56 12.55 11.39A667197.3 667197.3 0 0 0 28.46 640c30.57-83.77 47.52-130.31 50.94-139.63-104.41-133.85-80.54-326.99 53.31-431.4 133.88-104.41 327.01-80.53 431.42 53.35a307.35 307.35 0 0 1 65.01 189.04c0 169.78-137.64 307.41-307.42 307.41a307.17 307.17 0 0 1-154.98-41.93z" id="a"/>
    <path d="M166.74 576.84c.86.77 5.04 4.56 12.55 11.39A667197.3 667197.3 0 0 0 28.46 640c30.57-83.77 47.52-130.31 50.94-139.63-104.41-133.85-80.54-326.99 53.31-431.4 133.88-104.41 327.01-80.53 431.42 53.35a307.35 307.35 0 0 1 65.01 189.04c0 169.78-137.64 307.41-307.42 307.41a307.17 307.17 0 0 1-154.98-41.93z" id="b"/>
    <path d="M122.44 608.78c5.53-2.53 49.86-22.62 55.4-25.11 1.66 4.56 83.03 36.7 153.97 33.53 130.84-5.84 190.12-72.1 190.12-72.1s-13.88-94.08-91.43-115.46c-77.55-21.38-160.98-14.76-160.98-14.76-25.51 14.45-84.54 1.72-127.49 72.26 0 0-22.39 100.25-19.59 121.64z" id="c"/>
    <path d="M122.44 608.78c5.53-2.53 49.86-22.62 55.4-25.11 1.66 4.56 83.03 36.7 153.97 33.53 130.84-5.84 190.12-72.1 190.12-72.1s-13.88-94.08-91.43-115.46c-77.55-21.38-160.98-14.76-160.98-14.76-25.51 14.45-84.54 1.72-127.49 72.26 0 0-22.39 100.25-19.59 121.64z" id="d"/>
    <path d="M251.21 426.69s2.8 53.1 23.35 43.53l37.93-38.49-43.59-21.07s-18.27 2.8-17.69 16.03z" id="e"/>
    <path d="M251.21 426.69s2.8 53.1 23.35 43.53l37.93-38.49-43.59-21.07s-18.27 2.8-17.69 16.03z" id="f"/>
    <path d="M381.62 426.69s-2.83 53.1-23.35 43.53l-37.93-38.49 43.53-21.07c12.2 1.87 18.12 7.21 17.75 16.03z" id="g"/>
    <path d="M381.62 426.69s-2.83 53.1-23.35 43.53l-37.93-38.49 43.53-21.07c12.2 1.87 18.12 7.21 17.75 16.03z" id="h"/>
    <path d="M269.52 373.13v41.56s52.79 39.9 96.07-2.8V304.87s-4.89-65.44-18-58.48c-2.98 1.66-29.41-1.08-33.71-49.01 0 0-60.7-26.98-88.79-8.43-28.08 18.52-25.28 30.92-25.28 30.92 6.27 29.68-20.8 131.54 31.47 148.34a48.56 48.56 0 0 0 38.24 4.92z" id="i"/>
    <path d="M269.52 373.13v41.56s52.79 39.9 96.07-2.8V304.87s-4.89-65.44-18-58.48c-2.98 1.66-29.41-1.08-33.71-49.01 0 0-60.7-26.98-88.79-8.43-28.08 18.52-25.28 30.92-25.28 30.92 6.27 29.68-20.8 131.54 31.47 148.34a48.56 48.56 0 0 0 38.24 4.92z" id="j"/>
    <path d="M251.03 225.07a36.87 36.87 0 0 0 47.83 10.89c6.96 9.78 20.25 12.49 32.15 11.75a65.06 65.06 0 0 0 41.1-17.04 48.77 48.77 0 0 0 14.71-41.1c-2.62-17.6-15.88-31.75-30.12-42.4a158.45 158.45 0 0 0-77.16-31.31c-25.34-2.86-65.83 0-85.24 19.1-19.41 19.14-21.17 57.16-7.29 80.51a48.93 48.93 0 0 0 30.15 23.66 31.24 31.24 0 0 0 33.87-14.06z" id="k"/>
    <path d="M251.03 225.07a36.87 36.87 0 0 0 47.83 10.89c6.96 9.78 20.25 12.49 32.15 11.75a65.06 65.06 0 0 0 41.1-17.04 48.77 48.77 0 0 0 14.71-41.1c-2.62-17.6-15.88-31.75-30.12-42.4a158.45 158.45 0 0 0-77.16-31.31c-25.34-2.86-65.83 0-85.24 19.1-19.41 19.14-21.17 57.16-7.29 80.51a48.93 48.93 0 0 0 30.15 23.66 31.24 31.24 0 0 0 33.87-14.06z" id="l"/>
    <path d="M313.32 350.46s-16.3 64.08-43.8 64.63V373.5c21.32-5.62 35.93-13.3 43.8-23.04z" id="m"/>
    <linearGradient id="n" gradientUnits="userSpaceOnUse" x1="302.74" y1="428.35" x2="266.22" y2="281.09">
      <stop offset="0%" stop-opacity="0"/>
      <stop offset="99%"/>
    </linearGradient>
    <path d="M313.32 350.46s-16.3 64.08-43.8 64.63V373.5c21.32-5.62 35.93-13.3 43.8-23.04z" id="o"/>
    <path d="M334.46 229.28l2.3 45.35c5.48-7.48 8.53-11.63 9.11-12.46 1.38-1.91 3.23-3.97 5.54-3.57 2.3.4 2.86 2 3.63 3.57a40.34 40.34 0 0 1-6.65 45.06 18.56 18.56 0 0 0-4.67 6.03c-.56 2-.68 4.07-.4 6.13.95 13.22 20.45 28.76 23.78 19.16 3.35-9.6 3.96-20.06 7.1-29.75a124.23 124.23 0 0 1 20.64-34.33 102.02 102.02 0 0 0 19.63-35.04c3.23-13.04.68-28.39-9.81-36.97a16.2 16.2 0 0 1-4.89-4.9 13.95 13.95 0 0 1-.96-4.89 70.8 70.8 0 0 0-19.07-43.59 57.48 57.48 0 0 0-43.71-17.75c-2.77.03-5.48.65-7.94 1.88a19.53 19.53 0 0 0-8.28 13.56c-5.26 24.52 6.13 49.04 10.37 73.93" id="p"/>
    <path d="M334.46 229.28l2.3 45.35c5.48-7.48 8.53-11.63 9.11-12.46 1.38-1.91 3.23-3.97 5.54-3.57 2.3.4 2.86 2 3.63 3.57a40.34 40.34 0 0 1-6.65 45.06 18.56 18.56 0 0 0-4.67 6.03c-.56 2-.68 4.07-.4 6.13.95 13.22 20.45 28.76 23.78 19.16 3.35-9.6 3.96-20.06 7.1-29.75a124.23 124.23 0 0 1 20.64-34.33 102.02 102.02 0 0 0 19.63-35.04c3.23-13.04.68-28.39-9.81-36.97a16.2 16.2 0 0 1-4.89-4.9 13.95 13.95 0 0 1-.96-4.89 70.8 70.8 0 0 0-19.07-43.59 57.48 57.48 0 0 0-43.71-17.75c-2.77.03-5.48.65-7.94 1.88a19.53 19.53 0 0 0-8.28 13.56c-5.26 24.52 6.13 49.04 10.37 73.93" id="q"/>
  </defs>
  <use xlink:href="#a" fill="#d8e1ff"/>
  <use xlink:href="#a" fill-opacity="0" stroke="#000" stroke-opacity="0"/>
  <use xlink:href="#b" fill-opacity="0"/>
  <use xlink:href="#b" fill-opacity="0" stroke="#000" stroke-opacity="0"/>
  <use xlink:href="#c" fill="#174ffc"/>
  <use xlink:href="#c" fill-opacity="0" stroke="#000" stroke-opacity="0"/>
  <use xlink:href="#d" fill-opacity="0"/>
  <use xlink:href="#d" fill-opacity="0" stroke="#000" stroke-opacity="0"/>
  <use xlink:href="#e" fill="#fff"/>
  <use xlink:href="#e" fill-opacity="0" stroke="#000" stroke-opacity="0"/>
  <use xlink:href="#f" fill-opacity="0"/>
  <use xlink:href="#f" fill-opacity="0" stroke="#000" stroke-opacity="0"/>
  <use xlink:href="#g" fill="#fff"/>
  <use xlink:href="#g" fill-opacity="0" stroke="#000" stroke-opacity="0"/>
  <use xlink:href="#h" fill-opacity="0"/>
  <use xlink:href="#h" fill-opacity="0" stroke="#000" stroke-opacity="0"/>
  <g>
    <use xlink:href="#i" fill="#f7af87"/>
    <use xlink:href="#i" fill-opacity="0" stroke="#000" stroke-opacity="0"/>
  </g>
  <g>
    <use xlink:href="#j" fill-opacity="0"/>
    <use xlink:href="#j" fill-opacity="0" stroke="#000" stroke-opacity="0"/>
  </g>
  <g>
    <use xlink:href="#k" fill="#dd6034"/>
    <use xlink:href="#k" fill-opacity="0" stroke="#000" stroke-opacity="0"/>
  </g>
  <g>
    <use xlink:href="#l" fill-opacity="0"/>
    <use xlink:href="#l" fill-opacity="0" stroke="#000" stroke-opacity="0"/>
  </g>
  <g>
    <use xlink:href="#m" fill="url(#n)"/>
    <use xlink:href="#m" fill-opacity="0" stroke="#000" stroke-opacity="0"/>
  </g>
  <g>
    <use xlink:href="#o" fill-opacity="0"/>
    <use xlink:href="#o" fill-opacity="0" stroke="#000" stroke-opacity="0"/>
  </g>
  <g>
    <use xlink:href="#p" fill="#dd6034"/>
    <use xlink:href="#p" fill-opacity="0" stroke="#000" stroke-opacity="0"/>
  </g>
  <g>
    <use xlink:href="#q" fill-opacity="0"/>
    <use xlink:href="#q" fill-opacity="0" stroke="#000" stroke-opacity="0"/>
  </g>
</svg>
